<?xml version="1.0" encoding="UTF-8" standalone="no"?>
<!DOCTYPE svg PUBLIC "-//W3C//DTD SVG 1.1//EN"
 "http://www.w3.org/Graphics/SVG/1.1/DTD/svg11.dtd">
<!-- Generated by graphviz version 14.1.5 (0)
 -->
<!-- Title: dependency&#45;cruiser output Pages: 1 -->
<svg width="447pt" height="1618pt"
 viewBox="0.00 0.00 447.00 1618.00" xmlns="http://www.w3.org/2000/svg" xmlns:xlink="http://www.w3.org/1999/xlink">
<g id="graph0" class="graph" transform="scale(1 1) rotate(0) translate(4 1613.51)">
<title>dependency&#45;cruiser output</title>
<polygon fill="white" stroke="none" points="-4,4 -4,-1613.51 442.75,-1613.51 442.75,4 -4,4"/>
<g id="clust1" class="cluster">
<title>cluster_@</title>
<path fill="#ffffff" stroke="black" stroke-width="2" d="M275.25,-164.66C275.25,-164.66 418.75,-164.66 418.75,-164.66 424.75,-164.66 430.75,-170.66 430.75,-176.66 430.75,-176.66 430.75,-1175.66 430.75,-1175.66 430.75,-1181.66 424.75,-1187.66 418.75,-1187.66 418.75,-1187.66 275.25,-1187.66 275.25,-1187.66 269.25,-1187.66 263.25,-1181.66 263.25,-1175.66 263.25,-1175.66 263.25,-176.66 263.25,-176.66 263.25,-170.66 269.25,-164.66 275.25,-164.66"/>
<text xml:space="preserve" text-anchor="middle" x="347" y="-1175.11" font-family="Helvetica,sans-Serif" font-weight="bold" font-size="9.00">@</text>
</g>
<g id="clust2" class="cluster">
<title>cluster_@/assets</title>
<path fill="#ffffff" stroke="black" stroke-width="2" d="M313.25,-852.66C313.25,-852.66 380.75,-852.66 380.75,-852.66 386.75,-852.66 392.75,-858.66 392.75,-864.66 392.75,-864.66 392.75,-1023.66 392.75,-1023.66 392.75,-1029.66 386.75,-1035.66 380.75,-1035.66 380.75,-1035.66 313.25,-1035.66 313.25,-1035.66 307.25,-1035.66 301.25,-1029.66 301.25,-1023.66 301.25,-1023.66 301.25,-864.66 301.25,-864.66 301.25,-858.66 307.25,-852.66 313.25,-852.66"/>
<text xml:space="preserve" text-anchor="middle" x="347" y="-1023.11" font-family="Helvetica,sans-Serif" font-weight="bold" font-size="9.00">assets</text>
</g>
<g id="clust3" class="cluster">
<title>cluster_@/assets/pictures</title>
<path fill="#ffffff" stroke="black" stroke-width="2" d="M321.25,-860.66C321.25,-860.66 372.75,-860.66 372.75,-860.66 378.75,-860.66 384.75,-866.66 384.75,-872.66 384.75,-872.66 384.75,-996.66 384.75,-996.66 384.75,-1002.66 378.75,-1008.66 372.75,-1008.66 372.75,-1008.66 321.25,-1008.66 321.25,-1008.66 315.25,-1008.66 309.25,-1002.66 309.25,-996.66 309.25,-996.66 309.25,-872.66 309.25,-872.66 309.25,-866.66 315.25,-860.66 321.25,-860.66"/>
<text xml:space="preserve" text-anchor="middle" x="347" y="-996.11" font-family="Helvetica,sans-Serif" font-weight="bold" font-size="9.00">pictures</text>
</g>
<g id="clust4" class="cluster">
<title>cluster_@/components</title>
<path fill="#ffffff" stroke="black" stroke-width="2" d="M283.25,-454.66C283.25,-454.66 410.75,-454.66 410.75,-454.66 416.75,-454.66 422.75,-460.66 422.75,-466.66 422.75,-466.66 422.75,-713.66 422.75,-713.66 422.75,-719.66 416.75,-725.66 410.75,-725.66 410.75,-725.66 283.25,-725.66 283.25,-725.66 277.25,-725.66 271.25,-719.66 271.25,-713.66 271.25,-713.66 271.25,-466.66 271.25,-466.66 271.25,-460.66 277.25,-454.66 283.25,-454.66"/>
<text xml:space="preserve" text-anchor="middle" x="347" y="-713.11" font-family="Helvetica,sans-Serif" font-weight="bold" font-size="9.00">components</text>
</g>
<g id="clust5" class="cluster">
<title>cluster_@/components/insights</title>
<path fill="#ffffff" stroke="black" stroke-width="2" d="M302.88,-462.66C302.88,-462.66 391.12,-462.66 391.12,-462.66 397.12,-462.66 403.12,-468.66 403.12,-474.66 403.12,-474.66 403.12,-505.66 403.12,-505.66 403.12,-511.66 397.12,-517.66 391.12,-517.66 391.12,-517.66 302.88,-517.66 302.88,-517.66 296.88,-517.66 290.88,-511.66 290.88,-505.66 290.88,-505.66 290.88,-474.66 290.88,-474.66 290.88,-468.66 296.88,-462.66 302.88,-462.66"/>
<text xml:space="preserve" text-anchor="middle" x="347" y="-505.11" font-family="Helvetica,sans-Serif" font-weight="bold" font-size="9.00">insights</text>
</g>
<g id="clust6" class="cluster">
<title>cluster_@/components/movements</title>
<path fill="#ffffff" stroke="black" stroke-width="2" d="M291.25,-553.66C291.25,-553.66 402.75,-553.66 402.75,-553.66 408.75,-553.66 414.75,-559.66 414.75,-565.66 414.75,-565.66 414.75,-658.66 414.75,-658.66 414.75,-664.66 408.75,-670.66 402.75,-670.66 402.75,-670.66 291.25,-670.66 291.25,-670.66 285.25,-670.66 279.25,-664.66 279.25,-658.66 279.25,-658.66 279.25,-565.66 279.25,-565.66 279.25,-559.66 285.25,-553.66 291.25,-553.66"/>
<text xml:space="preserve" text-anchor="middle" x="347" y="-658.11" font-family="Helvetica,sans-Serif" font-weight="bold" font-size="9.00">movements</text>
</g>
<g id="clust7" class="cluster">
<title>cluster_@/composables</title>
<path fill="#ffffff" stroke="black" stroke-width="2" d="M296.12,-235.66C296.12,-235.66 397.88,-235.66 397.88,-235.66 403.88,-235.66 409.88,-241.66 409.88,-247.66 409.88,-247.66 409.88,-309.66 409.88,-309.66 409.88,-315.66 403.88,-321.66 397.88,-321.66 397.88,-321.66 296.12,-321.66 296.12,-321.66 290.12,-321.66 284.12,-315.66 284.12,-309.66 284.12,-309.66 284.12,-247.66 284.12,-247.66 284.12,-241.66 290.12,-235.66 296.12,-235.66"/>
<text xml:space="preserve" text-anchor="middle" x="347" y="-309.11" font-family="Helvetica,sans-Serif" font-weight="bold" font-size="9.00">composables</text>
</g>
<g id="clust8" class="cluster">
<title>cluster_@/services</title>
<path fill="#ffffff" stroke="black" stroke-width="2" d="M319,-761.66C319,-761.66 375,-761.66 375,-761.66 381,-761.66 387,-767.66 387,-773.66 387,-773.66 387,-804.66 387,-804.66 387,-810.66 381,-816.66 375,-816.66 375,-816.66 319,-816.66 319,-816.66 313,-816.66 307,-810.66 307,-804.66 307,-804.66 307,-773.66 307,-773.66 307,-767.66 313,-761.66 319,-761.66"/>
<text xml:space="preserve" text-anchor="middle" x="347" y="-804.11" font-family="Helvetica,sans-Serif" font-weight="bold" font-size="9.00">services</text>
</g>
<g id="clust9" class="cluster">
<title>cluster_@/stores</title>
<path fill="#ffffff" stroke="black" stroke-width="2" d="M309.25,-172.66C309.25,-172.66 384.75,-172.66 384.75,-172.66 390.75,-172.66 396.75,-178.66 396.75,-184.66 396.75,-184.66 396.75,-215.66 396.75,-215.66 396.75,-221.66 390.75,-227.66 384.75,-227.66 384.75,-227.66 309.25,-227.66 309.25,-227.66 303.25,-227.66 297.25,-221.66 297.25,-215.66 297.25,-215.66 297.25,-184.66 297.25,-184.66 297.25,-178.66 303.25,-172.66 309.25,-172.66"/>
<text xml:space="preserve" text-anchor="middle" x="347" y="-215.11" font-family="Helvetica,sans-Serif" font-weight="bold" font-size="9.00">stores</text>
</g>
<g id="clust10" class="cluster">
<title>cluster_@/utils</title>
<path fill="#ffffff" stroke="black" stroke-width="2" d="M296.12,-329.66C296.12,-329.66 397.88,-329.66 397.88,-329.66 403.88,-329.66 409.88,-335.66 409.88,-341.66 409.88,-341.66 409.88,-434.66 409.88,-434.66 409.88,-440.66 403.88,-446.66 397.88,-446.66 397.88,-446.66 296.12,-446.66 296.12,-446.66 290.12,-446.66 284.12,-440.66 284.12,-434.66 284.12,-434.66 284.12,-341.66 284.12,-341.66 284.12,-335.66 290.12,-329.66 296.12,-329.66"/>
<text xml:space="preserve" text-anchor="middle" x="347" y="-434.11" font-family="Helvetica,sans-Serif" font-weight="bold" font-size="9.00">utils</text>
</g>
<g id="clust11" class="cluster">
<title>cluster_@/views</title>
<path fill="#ffffff" stroke="black" stroke-width="2" d="M297.62,-1043.66C297.62,-1043.66 396.38,-1043.66 396.38,-1043.66 402.38,-1043.66 408.38,-1049.66 408.38,-1055.66 408.38,-1055.66 408.38,-1148.66 408.38,-1148.66 408.38,-1154.66 402.38,-1160.66 396.38,-1160.66 396.38,-1160.66 297.62,-1160.66 297.62,-1160.66 291.62,-1160.66 285.62,-1154.66 285.62,-1148.66 285.62,-1148.66 285.62,-1055.66 285.62,-1055.66 285.62,-1049.66 291.62,-1043.66 297.62,-1043.66"/>
<text xml:space="preserve" text-anchor="middle" x="347" y="-1148.11" font-family="Helvetica,sans-Serif" font-weight="bold" font-size="9.00">views</text>
</g>
<g id="clust12" class="cluster">
<title>cluster_node_modules</title>
<path fill="#ffffff" stroke="black" stroke-width="2" d="M314.75,-1423.66C314.75,-1423.66 380.25,-1423.66 380.25,-1423.66 386.25,-1423.66 392.25,-1429.66 392.25,-1435.66 392.25,-1435.66 392.25,-1466.66 392.25,-1466.66 392.25,-1472.66 386.25,-1478.66 380.25,-1478.66 380.25,-1478.66 314.75,-1478.66 314.75,-1478.66 308.75,-1478.66 302.75,-1472.66 302.75,-1466.66 302.75,-1466.66 302.75,-1435.66 302.75,-1435.66 302.75,-1429.66 308.75,-1423.66 314.75,-1423.66"/>
<text xml:space="preserve" text-anchor="middle" x="347.5" y="-1466.11" font-family="Helvetica,sans-Serif" font-weight="bold" font-size="9.00">node_modules</text>
</g>
<g id="clust13" class="cluster">
<title>cluster_src</title>
<path fill="#ffffff" stroke="black" stroke-width="2" d="M20,-435.66C20,-435.66 243.25,-435.66 243.25,-435.66 249.25,-435.66 255.25,-441.66 255.25,-447.66 255.25,-447.66 255.25,-1324.66 255.25,-1324.66 255.25,-1330.66 249.25,-1336.66 243.25,-1336.66 243.25,-1336.66 20,-1336.66 20,-1336.66 14,-1336.66 8,-1330.66 8,-1324.66 8,-1324.66 8,-447.66 8,-447.66 8,-441.66 14,-435.66 20,-435.66"/>
<text xml:space="preserve" text-anchor="middle" x="131.62" y="-1324.11" font-family="Helvetica,sans-Serif" font-weight="bold" font-size="9.00">src</text>
</g>
<g id="clust14" class="cluster">
<title>cluster_src/assets</title>
<path fill="#ffffff" stroke="black" stroke-width="2" d="M187.5,-1191.66C187.5,-1191.66 235.25,-1191.66 235.25,-1191.66 241.25,-1191.66 247.25,-1197.66 247.25,-1203.66 247.25,-1203.66 247.25,-1234.66 247.25,-1234.66 247.25,-1240.66 241.25,-1246.66 235.25,-1246.66 235.25,-1246.66 187.5,-1246.66 187.5,-1246.66 181.5,-1246.66 175.5,-1240.66 175.5,-1234.66 175.5,-1234.66 175.5,-1203.66 175.5,-1203.66 175.5,-1197.66 181.5,-1191.66 187.5,-1191.66"/>
<text xml:space="preserve" text-anchor="middle" x="211.38" y="-1234.11" font-family="Helvetica,sans-Serif" font-weight="bold" font-size="9.00">assets</text>
</g>
<g id="clust15" class="cluster">
<title>cluster_src/components</title>
<path fill="#ffffff" stroke="black" stroke-width="2" d="M28,-663.66C28,-663.66 155.5,-663.66 155.5,-663.66 161.5,-663.66 167.5,-669.66 167.5,-675.66 167.5,-675.66 167.5,-925.66 167.5,-925.66 167.5,-931.66 161.5,-937.66 155.5,-937.66 155.5,-937.66 28,-937.66 28,-937.66 22,-937.66 16,-931.66 16,-925.66 16,-925.66 16,-675.66 16,-675.66 16,-669.66 22,-663.66 28,-663.66"/>
<text xml:space="preserve" text-anchor="middle" x="91.75" y="-925.11" font-family="Helvetica,sans-Serif" font-weight="bold" font-size="9.00">components</text>
</g>
<g id="clust16" class="cluster">
<title>cluster_src/components/insights</title>
<path fill="#ffffff" stroke="black" stroke-width="2" d="M47.62,-796.66C47.62,-796.66 135.88,-796.66 135.88,-796.66 141.88,-796.66 147.88,-802.66 147.88,-808.66 147.88,-808.66 147.88,-839.66 147.88,-839.66 147.88,-845.66 141.88,-851.66 135.88,-851.66 135.88,-851.66 47.62,-851.66 47.62,-851.66 41.62,-851.66 35.62,-845.66 35.62,-839.66 35.62,-839.66 35.62,-808.66 35.62,-808.66 35.62,-802.66 41.62,-796.66 47.62,-796.66"/>
<text xml:space="preserve" text-anchor="middle" x="91.75" y="-839.11" font-family="Helvetica,sans-Serif" font-weight="bold" font-size="9.00">insights</text>
</g>
<g id="clust17" class="cluster">
<title>cluster_src/components/movements</title>
<path fill="#ffffff" stroke="black" stroke-width="2" d="M36,-671.66C36,-671.66 147.5,-671.66 147.5,-671.66 153.5,-671.66 159.5,-677.66 159.5,-683.66 159.5,-683.66 159.5,-776.66 159.5,-776.66 159.5,-782.66 153.5,-788.66 147.5,-788.66 147.5,-788.66 36,-788.66 36,-788.66 30,-788.66 24,-782.66 24,-776.66 24,-776.66 24,-683.66 24,-683.66 24,-677.66 30,-671.66 36,-671.66"/>
<text xml:space="preserve" text-anchor="middle" x="91.75" y="-776.11" font-family="Helvetica,sans-Serif" font-weight="bold" font-size="9.00">movements</text>
</g>
<g id="clust18" class="cluster">
<title>cluster_src/composables</title>
<path fill="#ffffff" stroke="black" stroke-width="2" d="M35.25,-569.66C35.25,-569.66 148.25,-569.66 148.25,-569.66 154.25,-569.66 160.25,-575.66 160.25,-581.66 160.25,-581.66 160.25,-643.66 160.25,-643.66 160.25,-649.66 154.25,-655.66 148.25,-655.66 148.25,-655.66 35.25,-655.66 35.25,-655.66 29.25,-655.66 23.25,-649.66 23.25,-643.66 23.25,-643.66 23.25,-581.66 23.25,-581.66 23.25,-575.66 29.25,-569.66 35.25,-569.66"/>
<text xml:space="preserve" text-anchor="middle" x="91.75" y="-643.11" font-family="Helvetica,sans-Serif" font-weight="bold" font-size="9.00">composables</text>
</g>
<g id="clust19" class="cluster">
<title>cluster_src/router</title>
<path fill="#ffffff" stroke="black" stroke-width="2" d="M188.38,-1254.66C188.38,-1254.66 234.38,-1254.66 234.38,-1254.66 240.38,-1254.66 246.38,-1260.66 246.38,-1266.66 246.38,-1266.66 246.38,-1297.66 246.38,-1297.66 246.38,-1303.66 240.38,-1309.66 234.38,-1309.66 234.38,-1309.66 188.38,-1309.66 188.38,-1309.66 182.38,-1309.66 176.38,-1303.66 176.38,-1297.66 176.38,-1297.66 176.38,-1266.66 176.38,-1266.66 176.38,-1260.66 182.38,-1254.66 188.38,-1254.66"/>
<text xml:space="preserve" text-anchor="middle" x="211.38" y="-1297.11" font-family="Helvetica,sans-Serif" font-weight="bold" font-size="9.00">router</text>
</g>
<g id="clust20" class="cluster">
<title>cluster_src/services</title>
<path fill="#ffffff" stroke="black" stroke-width="2" d="M58.12,-506.66C58.12,-506.66 125.38,-506.66 125.38,-506.66 131.38,-506.66 137.38,-512.66 137.38,-518.66 137.38,-518.66 137.38,-549.66 137.38,-549.66 137.38,-555.66 131.38,-561.66 125.38,-561.66 125.38,-561.66 58.12,-561.66 58.12,-561.66 52.12,-561.66 46.12,-555.66 46.12,-549.66 46.12,-549.66 46.12,-518.66 46.12,-518.66 46.12,-512.66 52.12,-506.66 58.12,-506.66"/>
<text xml:space="preserve" text-anchor="middle" x="91.75" y="-549.11" font-family="Helvetica,sans-Serif" font-weight="bold" font-size="9.00">services</text>
</g>
<g id="clust21" class="cluster">
<title>cluster_src/stores</title>
<path fill="#ffffff" stroke="black" stroke-width="2" d="M48.38,-443.66C48.38,-443.66 135.12,-443.66 135.12,-443.66 141.12,-443.66 147.12,-449.66 147.12,-455.66 147.12,-455.66 147.12,-486.66 147.12,-486.66 147.12,-492.66 141.12,-498.66 135.12,-498.66 135.12,-498.66 48.38,-498.66 48.38,-498.66 42.38,-498.66 36.38,-492.66 36.38,-486.66 36.38,-486.66 36.38,-455.66 36.38,-455.66 36.38,-449.66 42.38,-443.66 48.38,-443.66"/>
<text xml:space="preserve" text-anchor="middle" x="91.75" y="-486.11" font-family="Helvetica,sans-Serif" font-weight="bold" font-size="9.00">stores</text>
</g>
<g id="clust22" class="cluster">
<title>cluster_src/types</title>
<path fill="#ffffff" stroke="black" stroke-width="2" d="M68.75,-945.66C68.75,-945.66 114.75,-945.66 114.75,-945.66 120.75,-945.66 126.75,-951.66 126.75,-957.66 126.75,-957.66 126.75,-988.66 126.75,-988.66 126.75,-994.66 120.75,-1000.66 114.75,-1000.66 114.75,-1000.66 68.75,-1000.66 68.75,-1000.66 62.75,-1000.66 56.75,-994.66 56.75,-988.66 56.75,-988.66 56.75,-957.66 56.75,-957.66 56.75,-951.66 62.75,-945.66 68.75,-945.66"/>
<text xml:space="preserve" text-anchor="middle" x="91.75" y="-988.11" font-family="Helvetica,sans-Serif" font-weight="bold" font-size="9.00">types</text>
</g>
<g id="clust23" class="cluster">
<title>cluster_src/utils</title>
<path fill="#ffffff" stroke="black" stroke-width="2" d="M35.25,-1133.66C35.25,-1133.66 148.25,-1133.66 148.25,-1133.66 154.25,-1133.66 160.25,-1139.66 160.25,-1145.66 160.25,-1145.66 160.25,-1238.66 160.25,-1238.66 160.25,-1244.66 154.25,-1250.66 148.25,-1250.66 148.25,-1250.66 35.25,-1250.66 35.25,-1250.66 29.25,-1250.66 23.25,-1244.66 23.25,-1238.66 23.25,-1238.66 23.25,-1145.66 23.25,-1145.66 23.25,-1139.66 29.25,-1133.66 35.25,-1133.66"/>
<text xml:space="preserve" text-anchor="middle" x="91.75" y="-1238.11" font-family="Helvetica,sans-Serif" font-weight="bold" font-size="9.00">utils</text>
</g>
<g id="clust24" class="cluster">
<title>cluster_src/views</title>
<path fill="#ffffff" stroke="black" stroke-width="2" d="M42.38,-1008.66C42.38,-1008.66 141.12,-1008.66 141.12,-1008.66 147.12,-1008.66 153.12,-1014.66 153.12,-1020.66 153.12,-1020.66 153.12,-1113.66 153.12,-1113.66 153.12,-1119.66 147.12,-1125.66 141.12,-1125.66 141.12,-1125.66 42.38,-1125.66 42.38,-1125.66 36.38,-1125.66 30.38,-1119.66 30.38,-1113.66 30.38,-1113.66 30.38,-1020.66 30.38,-1020.66 30.38,-1014.66 36.38,-1008.66 42.38,-1008.66"/>
<text xml:space="preserve" text-anchor="middle" x="91.75" y="-1113.11" font-family="Helvetica,sans-Serif" font-weight="bold" font-size="9.00">views</text>
</g>
<!-- @/assets/pictures/carlos.jpg -->
<g id="node1" class="node">
<title>@/assets/pictures/carlos.jpg</title>
<g id="a_node1"><a xlink:title="carlos.jpg">
<path fill="#ffffcc" stroke="black" d="M370.33,-888.29C370.33,-888.29 323.67,-888.29 323.67,-888.29 320.46,-888.29 317.25,-885.08 317.25,-881.87 317.25,-881.87 317.25,-875.45 317.25,-875.45 317.25,-872.25 320.46,-869.04 323.67,-869.04 323.67,-869.04 370.33,-869.04 370.33,-869.04 373.54,-869.04 376.75,-872.25 376.75,-875.45 376.75,-875.45 376.75,-881.87 376.75,-881.87 376.75,-885.08 373.54,-888.29 370.33,-888.29"/>
<text xml:space="preserve" text-anchor="start" x="325.25" y="-875.29" font-family="Helvetica,sans-Serif" font-size="9.00">carlos.jpg</text>
</a>
</g>
</g>
<!-- @/assets/pictures/james.jpg -->
<g id="node2" class="node">
<title>@/assets/pictures/james.jpg</title>
<g id="a_node2"><a xlink:title="james.jpg">
<path fill="#ffffcc" stroke="black" d="M370.33,-981.29C370.33,-981.29 323.67,-981.29 323.67,-981.29 320.46,-981.29 317.25,-978.08 317.25,-974.87 317.25,-974.87 317.25,-968.45 317.25,-968.45 317.25,-965.25 320.46,-962.04 323.67,-962.04 323.67,-962.04 370.33,-962.04 370.33,-962.04 373.54,-962.04 376.75,-965.25 376.75,-968.45 376.75,-968.45 376.75,-974.87 376.75,-974.87 376.75,-978.08 373.54,-981.29 370.33,-981.29"/>
<text xml:space="preserve" text-anchor="start" x="325.25" y="-968.29" font-family="Helvetica,sans-Serif" font-size="9.00">james.jpg</text>
</a>
</g>
</g>
<!-- @/assets/pictures/priya.jpg -->
<g id="node3" class="node">
<title>@/assets/pictures/priya.jpg</title>
<g id="a_node3"><a xlink:title="priya.jpg">
<path fill="#ffffcc" stroke="black" d="M368.46,-950.29C368.46,-950.29 325.54,-950.29 325.54,-950.29 322.33,-950.29 319.12,-947.08 319.12,-943.87 319.12,-943.87 319.12,-937.45 319.12,-937.45 319.12,-934.25 322.33,-931.04 325.54,-931.04 325.54,-931.04 368.46,-931.04 368.46,-931.04 371.67,-931.04 374.88,-934.25 374.88,-937.45 374.88,-937.45 374.88,-943.87 374.88,-943.87 374.88,-947.08 371.67,-950.29 368.46,-950.29"/>
<text xml:space="preserve" text-anchor="start" x="327.12" y="-937.29" font-family="Helvetica,sans-Serif" font-size="9.00">priya.jpg</text>
</a>
</g>
</g>
<!-- @/assets/pictures/sarah.jpg -->
<g id="node4" class="node">
<title>@/assets/pictures/sarah.jpg</title>
<g id="a_node4"><a xlink:title="sarah.jpg">
<path fill="#ffffcc" stroke="black" d="M369.58,-919.29C369.58,-919.29 324.42,-919.29 324.42,-919.29 321.21,-919.29 318,-916.08 318,-912.87 318,-912.87 318,-906.45 318,-906.45 318,-903.25 321.21,-900.04 324.42,-900.04 324.42,-900.04 369.58,-900.04 369.58,-900.04 372.79,-900.04 376,-903.25 376,-906.45 376,-906.45 376,-912.87 376,-912.87 376,-916.08 372.79,-919.29 369.58,-919.29"/>
<text xml:space="preserve" text-anchor="start" x="326" y="-906.29" font-family="Helvetica,sans-Serif" font-size="9.00">sarah.jpg</text>
</a>
</g>
</g>
<!-- @/components/AppNavbar.vue -->
<g id="node5" class="node">
<title>@/components/AppNavbar.vue</title>
<g id="a_node5"><a xlink:title="AppNavbar.vue">
<path fill="#41f083" stroke="black" d="M382.71,-698.29C382.71,-698.29 311.29,-698.29 311.29,-698.29 308.08,-698.29 304.88,-695.08 304.88,-691.87 304.88,-691.87 304.88,-685.45 304.88,-685.45 304.88,-682.25 308.08,-679.04 311.29,-679.04 311.29,-679.04 382.71,-679.04 382.71,-679.04 385.92,-679.04 389.12,-682.25 389.12,-685.45 389.12,-685.45 389.12,-691.87 389.12,-691.87 389.12,-695.08 385.92,-698.29 382.71,-698.29"/>
<text xml:space="preserve" text-anchor="start" x="312.88" y="-685.29" font-family="Helvetica,sans-Serif" font-size="9.00">AppNavbar.vue</text>
</a>
</g>
</g>
<!-- @/components/SuccessCarousel.vue -->
<g id="node6" class="node">
<title>@/components/SuccessCarousel.vue</title>
<g id="a_node6"><a xlink:title="SuccessCarousel.vue">
<path fill="#41f083" stroke="black" d="M395.83,-545.29C395.83,-545.29 298.17,-545.29 298.17,-545.29 294.96,-545.29 291.75,-542.08 291.75,-538.87 291.75,-538.87 291.75,-532.45 291.75,-532.45 291.75,-529.25 294.96,-526.04 298.17,-526.04 298.17,-526.04 395.83,-526.04 395.83,-526.04 399.04,-526.04 402.25,-529.25 402.25,-532.45 402.25,-532.45 402.25,-538.87 402.25,-538.87 402.25,-542.08 399.04,-545.29 395.83,-545.29"/>
<text xml:space="preserve" text-anchor="start" x="299.75" y="-532.29" font-family="Helvetica,sans-Serif" font-size="9.00">SuccessCarousel.vue</text>
</a>
</g>
</g>
<!-- @/components/insights/InsightsChart.vue -->
<g id="node7" class="node">
<title>@/components/insights/InsightsChart.vue</title>
<g id="a_node7"><a xlink:title="InsightsChart.vue">
<path fill="#41f083" stroke="black" d="M388.71,-490.29C388.71,-490.29 305.29,-490.29 305.29,-490.29 302.08,-490.29 298.88,-487.08 298.88,-483.87 298.88,-483.87 298.88,-477.45 298.88,-477.45 298.88,-474.25 302.08,-471.04 305.29,-471.04 305.29,-471.04 388.71,-471.04 388.71,-471.04 391.92,-471.04 395.12,-474.25 395.12,-477.45 395.12,-477.45 395.12,-483.87 395.12,-483.87 395.12,-487.08 391.92,-490.29 388.71,-490.29"/>
<text xml:space="preserve" text-anchor="start" x="306.88" y="-477.29" font-family="Helvetica,sans-Serif" font-size="9.00">InsightsChart.vue</text>
</a>
</g>
</g>
<!-- @/components/movements/MovementForm.vue -->
<g id="node8" class="node">
<title>@/components/movements/MovementForm.vue</title>
<g id="a_node8"><a xlink:title="MovementForm.vue">
<path fill="#41f083" stroke="black" d="M393.58,-643.29C393.58,-643.29 300.42,-643.29 300.42,-643.29 297.21,-643.29 294,-640.08 294,-636.87 294,-636.87 294,-630.45 294,-630.45 294,-627.25 297.21,-624.04 300.42,-624.04 300.42,-624.04 393.58,-624.04 393.58,-624.04 396.79,-624.04 400,-627.25 400,-630.45 400,-630.45 400,-636.87 400,-636.87 400,-640.08 396.79,-643.29 393.58,-643.29"/>
<text xml:space="preserve" text-anchor="start" x="302" y="-630.29" font-family="Helvetica,sans-Serif" font-size="9.00">MovementForm.vue</text>
</a>
</g>
</g>
<!-- @/components/movements/MovementList.vue -->
<g id="node9" class="node">
<title>@/components/movements/MovementList.vue</title>
<g id="a_node9"><a xlink:title="MovementList.vue">
<path fill="#41f083" stroke="black" d="M389.83,-612.29C389.83,-612.29 304.17,-612.29 304.17,-612.29 300.96,-612.29 297.75,-609.08 297.75,-605.87 297.75,-605.87 297.75,-599.45 297.75,-599.45 297.75,-596.25 300.96,-593.04 304.17,-593.04 304.17,-593.04 389.83,-593.04 389.83,-593.04 393.04,-593.04 396.25,-596.25 396.25,-599.45 396.25,-599.45 396.25,-605.87 396.25,-605.87 396.25,-609.08 393.04,-612.29 389.83,-612.29"/>
<text xml:space="preserve" text-anchor="start" x="305.75" y="-599.29" font-family="Helvetica,sans-Serif" font-size="9.00">MovementList.vue</text>
</a>
</g>
</g>
<!-- @/components/movements/MovementListItem.vue -->
<g id="node10" class="node">
<title>@/components/movements/MovementListItem.vue</title>
<g id="a_node10"><a xlink:title="MovementListItem.vue">
<path fill="#41f083" stroke="black" d="M400.33,-581.29C400.33,-581.29 293.67,-581.29 293.67,-581.29 290.46,-581.29 287.25,-578.08 287.25,-574.87 287.25,-574.87 287.25,-568.45 287.25,-568.45 287.25,-565.25 290.46,-562.04 293.67,-562.04 293.67,-562.04 400.33,-562.04 400.33,-562.04 403.54,-562.04 406.75,-565.25 406.75,-568.45 406.75,-568.45 406.75,-574.87 406.75,-574.87 406.75,-578.08 403.54,-581.29 400.33,-581.29"/>
<text xml:space="preserve" text-anchor="start" x="295.25" y="-568.29" font-family="Helvetica,sans-Serif" font-size="9.00">MovementListItem.vue</text>
</a>
</g>
</g>
<!-- @/composables/useMovementSearch -->
<g id="node11" class="node">
<title>@/composables/useMovementSearch</title>
<g id="a_node11"><a xlink:title="useMovementSearch">
<path fill="#ffffcc" stroke="black" d="M395.46,-263.29C395.46,-263.29 298.54,-263.29 298.54,-263.29 295.33,-263.29 292.12,-260.08 292.12,-256.87 292.12,-256.87 292.12,-250.45 292.12,-250.45 292.12,-247.25 295.33,-244.04 298.54,-244.04 298.54,-244.04 395.46,-244.04 395.46,-244.04 398.67,-244.04 401.88,-247.25 401.88,-250.45 401.88,-250.45 401.88,-256.87 401.88,-256.87 401.88,-260.08 398.67,-263.29 395.46,-263.29"/>
<text xml:space="preserve" text-anchor="start" x="300.12" y="-250.29" font-family="Helvetica,sans-Serif" font-size="9.00">useMovementSearch</text>
</a>
</g>
</g>
<!-- @/composables/useUser -->
<g id="node12" class="node">
<title>@/composables/useUser</title>
<g id="a_node12"><a xlink:title="useUser">
<path fill="#ffffcc" stroke="black" d="M367.58,-294.29C367.58,-294.29 326.42,-294.29 326.42,-294.29 323.21,-294.29 320,-291.08 320,-287.87 320,-287.87 320,-281.45 320,-281.45 320,-278.25 323.21,-275.04 326.42,-275.04 326.42,-275.04 367.58,-275.04 367.58,-275.04 370.79,-275.04 374,-278.25 374,-281.45 374,-281.45 374,-287.87 374,-287.87 374,-291.08 370.79,-294.29 367.58,-294.29"/>
<text xml:space="preserve" text-anchor="start" x="329" y="-281.29" font-family="Helvetica,sans-Serif" font-size="9.00">useUser</text>
</a>
</g>
</g>
<!-- @/config -->
<g id="node13" class="node">
<title>@/config</title>
<g id="a_node13"><a xlink:title="config">
<path fill="#ffffcc" stroke="black" d="M367.58,-753.29C367.58,-753.29 326.42,-753.29 326.42,-753.29 323.21,-753.29 320,-750.08 320,-746.87 320,-746.87 320,-740.45 320,-740.45 320,-737.25 323.21,-734.04 326.42,-734.04 326.42,-734.04 367.58,-734.04 367.58,-734.04 370.79,-734.04 374,-737.25 374,-740.45 374,-740.45 374,-746.87 374,-746.87 374,-750.08 370.79,-753.29 367.58,-753.29"/>
<text xml:space="preserve" text-anchor="start" x="333.12" y="-740.29" font-family="Helvetica,sans-Serif" font-size="9.00">config</text>
</a>
</g>
</g>
<!-- @/services/api.service -->
<g id="node14" class="node">
<title>@/services/api.service</title>
<g id="a_node14"><a xlink:title="api.service">
<path fill="#ffffcc" stroke="black" d="M372.58,-789.29C372.58,-789.29 321.42,-789.29 321.42,-789.29 318.21,-789.29 315,-786.08 315,-782.87 315,-782.87 315,-776.45 315,-776.45 315,-773.25 318.21,-770.04 321.42,-770.04 321.42,-770.04 372.58,-770.04 372.58,-770.04 375.79,-770.04 379,-773.25 379,-776.45 379,-776.45 379,-782.87 379,-782.87 379,-786.08 375.79,-789.29 372.58,-789.29"/>
<text xml:space="preserve" text-anchor="start" x="323" y="-776.29" font-family="Helvetica,sans-Serif" font-size="9.00">api.service</text>
</a>
</g>
</g>
<!-- @/stores/useMovements -->
<g id="node15" class="node">
<title>@/stores/useMovements</title>
<g id="a_node15"><a xlink:title="useMovements">
<path fill="#ffffcc" stroke="black" d="M382.33,-200.29C382.33,-200.29 311.67,-200.29 311.67,-200.29 308.46,-200.29 305.25,-197.08 305.25,-193.87 305.25,-193.87 305.25,-187.45 305.25,-187.45 305.25,-184.25 308.46,-181.04 311.67,-181.04 311.67,-181.04 382.33,-181.04 382.33,-181.04 385.54,-181.04 388.75,-184.25 388.75,-187.45 388.75,-187.45 388.75,-193.87 388.75,-193.87 388.75,-197.08 385.54,-200.29 382.33,-200.29"/>
<text xml:space="preserve" text-anchor="start" x="313.25" y="-187.29" font-family="Helvetica,sans-Serif" font-size="9.00">useMovements</text>
</a>
</g>
</g>
<!-- @/types -->
<g id="node16" class="node">
<title>@/types</title>
<g id="a_node16"><a xlink:title="types">
<path fill="#ffffcc" stroke="black" d="M367.58,-844.29C367.58,-844.29 326.42,-844.29 326.42,-844.29 323.21,-844.29 320,-841.08 320,-837.87 320,-837.87 320,-831.45 320,-831.45 320,-828.25 323.21,-825.04 326.42,-825.04 326.42,-825.04 367.58,-825.04 367.58,-825.04 370.79,-825.04 374,-828.25 374,-831.45 374,-831.45 374,-837.87 374,-837.87 374,-841.08 370.79,-844.29 367.58,-844.29"/>
<text xml:space="preserve" text-anchor="start" x="334.62" y="-831.29" font-family="Helvetica,sans-Serif" font-size="9.00">types</text>
</a>
</g>
</g>
<!-- @/utils/format.util -->
<g id="node17" class="node">
<title>@/utils/format.util</title>
<g id="a_node17"><a xlink:title="format.util">
<path fill="#ffffcc" stroke="black" d="M372.21,-357.29C372.21,-357.29 321.79,-357.29 321.79,-357.29 318.58,-357.29 315.38,-354.08 315.38,-350.87 315.38,-350.87 315.38,-344.45 315.38,-344.45 315.38,-341.25 318.58,-338.04 321.79,-338.04 321.79,-338.04 372.21,-338.04 372.21,-338.04 375.42,-338.04 378.62,-341.25 378.62,-344.45 378.62,-344.45 378.62,-350.87 378.62,-350.87 378.62,-354.08 375.42,-357.29 372.21,-357.29"/>
<text xml:space="preserve" text-anchor="start" x="323.38" y="-344.29" font-family="Helvetica,sans-Serif" font-size="9.00">format.util</text>
</a>
</g>
</g>
<!-- @/utils/insights.util -->
<g id="node18" class="node">
<title>@/utils/insights.util</title>
<g id="a_node18"><a xlink:title="insights.util">
<path fill="#ffffcc" stroke="black" d="M374.83,-388.29C374.83,-388.29 319.17,-388.29 319.17,-388.29 315.96,-388.29 312.75,-385.08 312.75,-381.87 312.75,-381.87 312.75,-375.45 312.75,-375.45 312.75,-372.25 315.96,-369.04 319.17,-369.04 319.17,-369.04 374.83,-369.04 374.83,-369.04 378.04,-369.04 381.25,-372.25 381.25,-375.45 381.25,-375.45 381.25,-381.87 381.25,-381.87 381.25,-385.08 378.04,-388.29 374.83,-388.29"/>
<text xml:space="preserve" text-anchor="start" x="320.75" y="-375.29" font-family="Helvetica,sans-Serif" font-size="9.00">insights.util</text>
</a>
</g>
</g>
<!-- @/utils/movement&#45;query.util -->
<g id="node19" class="node">
<title>@/utils/movement&#45;query.util</title>
<g id="a_node19"><a xlink:title="movement&#45;query.util">
<path fill="#ffffcc" stroke="black" d="M395.46,-419.29C395.46,-419.29 298.54,-419.29 298.54,-419.29 295.33,-419.29 292.12,-416.08 292.12,-412.87 292.12,-412.87 292.12,-406.45 292.12,-406.45 292.12,-403.25 295.33,-400.04 298.54,-400.04 298.54,-400.04 395.46,-400.04 395.46,-400.04 398.67,-400.04 401.88,-403.25 401.88,-406.45 401.88,-406.45 401.88,-412.87 401.88,-412.87 401.88,-416.08 398.67,-419.29 395.46,-419.29"/>
<text xml:space="preserve" text-anchor="start" x="300.12" y="-406.29" font-family="Helvetica,sans-Serif" font-size="9.00">movement&#45;query.util</text>
</a>
</g>
</g>
<!-- @/views/DashboardView.vue -->
<g id="node20" class="node">
<title>@/views/DashboardView.vue</title>
<g id="a_node20"><a xlink:title="DashboardView.vue">
<path fill="#41f083" stroke="black" d="M392.46,-1071.29C392.46,-1071.29 301.54,-1071.29 301.54,-1071.29 298.33,-1071.29 295.12,-1068.08 295.12,-1064.87 295.12,-1064.87 295.12,-1058.45 295.12,-1058.45 295.12,-1055.25 298.33,-1052.04 301.54,-1052.04 301.54,-1052.04 392.46,-1052.04 392.46,-1052.04 395.67,-1052.04 398.88,-1055.25 398.88,-1058.45 398.88,-1058.45 398.88,-1064.87 398.88,-1064.87 398.88,-1068.08 395.67,-1071.29 392.46,-1071.29"/>
<text xml:space="preserve" text-anchor="start" x="303.12" y="-1058.29" font-family="Helvetica,sans-Serif" font-size="9.00">DashboardView.vue</text>
</a>
</g>
</g>
<!-- @/views/InsightsView.vue -->
<g id="node21" class="node">
<title>@/views/InsightsView.vue</title>
<g id="a_node21"><a xlink:title="InsightsView.vue">
<path fill="#41f083" stroke="black" d="M386.08,-1102.29C386.08,-1102.29 307.92,-1102.29 307.92,-1102.29 304.71,-1102.29 301.5,-1099.08 301.5,-1095.87 301.5,-1095.87 301.5,-1089.45 301.5,-1089.45 301.5,-1086.25 304.71,-1083.04 307.92,-1083.04 307.92,-1083.04 386.08,-1083.04 386.08,-1083.04 389.29,-1083.04 392.5,-1086.25 392.5,-1089.45 392.5,-1089.45 392.5,-1095.87 392.5,-1095.87 392.5,-1099.08 389.29,-1102.29 386.08,-1102.29"/>
<text xml:space="preserve" text-anchor="start" x="309.5" y="-1089.29" font-family="Helvetica,sans-Serif" font-size="9.00">InsightsView.vue</text>
</a>
</g>
</g>
<!-- @/views/MovementsView.vue -->
<g id="node22" class="node">
<title>@/views/MovementsView.vue</title>
<g id="a_node22"><a xlink:title="MovementsView.vue">
<path fill="#41f083" stroke="black" d="M393.96,-1133.29C393.96,-1133.29 300.04,-1133.29 300.04,-1133.29 296.83,-1133.29 293.62,-1130.08 293.62,-1126.87 293.62,-1126.87 293.62,-1120.45 293.62,-1120.45 293.62,-1117.25 296.83,-1114.04 300.04,-1114.04 300.04,-1114.04 393.96,-1114.04 393.96,-1114.04 397.17,-1114.04 400.38,-1117.25 400.38,-1120.45 400.38,-1120.45 400.38,-1126.87 400.38,-1126.87 400.38,-1130.08 397.17,-1133.29 393.96,-1133.29"/>
<text xml:space="preserve" text-anchor="start" x="301.62" y="-1120.29" font-family="Helvetica,sans-Serif" font-size="9.00">MovementsView.vue</text>
</a>
</g>
</g>
<!-- node_modules/.pnpm -->
<g id="node23" class="node">
<title>node_modules/.pnpm</title>
<g id="a_node23"><a xlink:href="https://www.npmjs.com/package/.pnpm" xlink:title=".pnpm">
<polygon fill="#c40b0a" fill-opacity="0.101961" stroke="black" points="374,-1451.29 322.14,-1451.29 320,-1449.15 320,-1432.04 371.86,-1432.04 374,-1434.18 374,-1451.29"/>
<polyline fill="none" stroke="black" points="371.86,-1449.15 320,-1449.15"/>
<polyline fill="none" stroke="black" points="371.86,-1449.15 371.86,-1432.04"/>
<polyline fill="none" stroke="black" points="371.86,-1449.15 374,-1451.29"/>
<text xml:space="preserve" text-anchor="start" x="332" y="-1438.29" font-family="Helvetica,sans-Serif" font-size="9.00" fill="#c40b0a">.pnpm</text>
</a>
</g>
</g>
<!-- src/App.vue -->
<g id="node24" class="node">
<title>src/App.vue</title>
<g id="a_node24"><a xlink:href="src/App.vue" xlink:title="App.vue">
<path fill="#41f083" stroke="black" d="M231.96,-1183.29C231.96,-1183.29 190.79,-1183.29 190.79,-1183.29 187.58,-1183.29 184.38,-1180.08 184.38,-1176.87 184.38,-1176.87 184.38,-1170.45 184.38,-1170.45 184.38,-1167.25 187.58,-1164.04 190.79,-1164.04 190.79,-1164.04 231.96,-1164.04 231.96,-1164.04 235.17,-1164.04 238.38,-1167.25 238.38,-1170.45 238.38,-1170.45 238.38,-1176.87 238.38,-1176.87 238.38,-1180.08 235.17,-1183.29 231.96,-1183.29"/>
<text xml:space="preserve" text-anchor="start" x="192.62" y="-1170.29" font-family="Helvetica,sans-Serif" font-size="9.00">App.vue</text>
</a>
</g>
</g>
<!-- src/App.vue&#45;&gt;@/components/AppNavbar.vue -->
<g id="edge1" class="edge">
<title>src/App.vue&#45;&gt;@/components/AppNavbar.vue</title>
<path fill="none" stroke="#000000" stroke-width="2" stroke-opacity="0.200000" d="M212.74,-1163.79C215.2,-1099.1 230.4,-737.54 263.25,-702.66 271.69,-693.7 283.57,-689.13 295.71,-687.03"/>
<polygon fill="#000000" fill-opacity="0.200000" stroke="#000000" stroke-width="2" stroke-opacity="0.200000" points="295.85,-689.13 301.54,-686.29 295.32,-684.96 295.85,-689.13"/>
</g>
<!-- src/App.vue&#45;&gt;@/composables/useUser -->
<g id="edge2" class="edge">
<title>src/App.vue&#45;&gt;@/composables/useUser</title>
<path fill="none" stroke="#000000" stroke-width="2" stroke-opacity="0.200000" d="M212.38,-1163.65C212.5,-1073.27 215.02,-400.18 263.25,-326.66 274.19,-309.99 293.88,-299.62 311.32,-293.36"/>
<polygon fill="#000000" fill-opacity="0.200000" stroke="#000000" stroke-width="2" stroke-opacity="0.200000" points="311.74,-295.44 316.78,-291.56 310.42,-291.45 311.74,-295.44"/>
</g>
<!-- src/App.vue&#45;&gt;node_modules/.pnpm -->
<g id="edge3" class="edge">
<title>src/App.vue&#45;&gt;node_modules/.pnpm</title>
<path fill="none" stroke="#000000" stroke-opacity="0.200000" d="M238.51,-1178.72C244.61,-1180.93 250.66,-1184.11 255.25,-1188.66 323.53,-1256.41 340.69,-1379.08 344.78,-1424.31"/>
<polygon fill="#000000" fill-opacity="0.200000" stroke="#000000" stroke-opacity="0.200000" points="342.67,-1424.28 345.26,-1430.08 346.86,-1423.93 342.67,-1424.28"/>
</g>
<!-- src/assets/main.css -->
<g id="node25" class="node">
<title>src/assets/main.css</title>
<g id="a_node25"><a xlink:href="src/assets/main.css" xlink:title="main.css">
<path fill="#ffffcc" stroke="black" d="M232.83,-1219.29C232.83,-1219.29 189.92,-1219.29 189.92,-1219.29 186.71,-1219.29 183.5,-1216.08 183.5,-1212.87 183.5,-1212.87 183.5,-1206.45 183.5,-1206.45 183.5,-1203.25 186.71,-1200.04 189.92,-1200.04 189.92,-1200.04 232.83,-1200.04 232.83,-1200.04 236.04,-1200.04 239.25,-1203.25 239.25,-1206.45 239.25,-1206.45 239.25,-1212.87 239.25,-1212.87 239.25,-1216.08 236.04,-1219.29 232.83,-1219.29"/>
<text xml:space="preserve" text-anchor="start" x="191.5" y="-1206.29" font-family="Helvetica,sans-Serif" font-size="9.00">main.css</text>
</a>
</g>
</g>
<!-- src/components/AppNavbar.vue -->
<g id="node26" class="node">
<title>src/components/AppNavbar.vue</title>
<g id="a_node26"><a xlink:href="src/components/AppNavbar.vue" xlink:title="AppNavbar.vue">
<path fill="#41f083" stroke="black" d="M127.46,-879.29C127.46,-879.29 56.04,-879.29 56.04,-879.29 52.83,-879.29 49.62,-876.08 49.62,-872.87 49.62,-872.87 49.62,-866.45 49.62,-866.45 49.62,-863.25 52.83,-860.04 56.04,-860.04 56.04,-860.04 127.46,-860.04 127.46,-860.04 130.67,-860.04 133.88,-863.25 133.88,-866.45 133.88,-866.45 133.88,-872.87 133.88,-872.87 133.88,-876.08 130.67,-879.29 127.46,-879.29"/>
<text xml:space="preserve" text-anchor="start" x="57.62" y="-866.29" font-family="Helvetica,sans-Serif" font-size="9.00">AppNavbar.vue</text>
</a>
</g>
</g>
<!-- src/components/AppNavbar.vue&#45;&gt;@/types -->
<g id="edge4" class="edge">
<title>src/components/AppNavbar.vue&#45;&gt;@/types</title>
<path fill="none" stroke="#000000" stroke-width="2" stroke-opacity="0.200000" d="M134.29,-868.9C146.64,-870.83 159.1,-875.31 167.5,-884.66 180.62,-899.27 161,-959.42 175.5,-972.66 201.67,-996.56 229.33,-996.84 255.25,-972.66 273.98,-955.19 247.05,-877.51 263.25,-857.66 274.73,-843.6 294.01,-837.71 311.08,-835.4"/>
<polygon fill="#000000" fill-opacity="0.200000" stroke="#000000" stroke-width="2" stroke-opacity="0.200000" points="310.99,-837.52 316.74,-834.81 310.55,-833.34 310.99,-837.52"/>
</g>
<!-- src/components/SuccessCarousel.vue -->
<g id="node27" class="node">
<title>src/components/SuccessCarousel.vue</title>
<g id="a_node27"><a xlink:href="src/components/SuccessCarousel.vue" xlink:title="SuccessCarousel.vue">
<path fill="#41f083" stroke="black" d="M140.58,-910.29C140.58,-910.29 42.92,-910.29 42.92,-910.29 39.71,-910.29 36.5,-907.08 36.5,-903.87 36.5,-903.87 36.5,-897.45 36.5,-897.45 36.5,-894.25 39.71,-891.04 42.92,-891.04 42.92,-891.04 140.58,-891.04 140.58,-891.04 143.79,-891.04 147,-894.25 147,-897.45 147,-897.45 147,-903.87 147,-903.87 147,-907.08 143.79,-910.29 140.58,-910.29"/>
<text xml:space="preserve" text-anchor="start" x="44.5" y="-897.29" font-family="Helvetica,sans-Serif" font-size="9.00">SuccessCarousel.vue</text>
</a>
</g>
</g>
<!-- src/components/SuccessCarousel.vue&#45;&gt;@/assets/pictures/carlos.jpg -->
<g id="edge5" class="edge">
<title>src/components/SuccessCarousel.vue&#45;&gt;@/assets/pictures/carlos.jpg</title>
<path fill="none" stroke="#000000" stroke-width="2" stroke-opacity="0.200000" d="M123.94,-910.66C139.5,-917.27 157.16,-927.56 167.5,-942.66 181.7,-963.41 156.51,-982.19 175.5,-998.66 202.28,-1021.89 229.25,-1022.76 255.25,-998.66 272.41,-982.76 247.58,-911.04 263.25,-893.66 274.39,-881.31 292,-876.98 308.11,-875.98"/>
<polygon fill="#000000" fill-opacity="0.200000" stroke="#000000" stroke-width="2" stroke-opacity="0.200000" points="307.9,-878.09 313.84,-875.82 307.78,-873.89 307.9,-878.09"/>
</g>
<!-- src/components/SuccessCarousel.vue&#45;&gt;@/assets/pictures/james.jpg -->
<g id="edge6" class="edge">
<title>src/components/SuccessCarousel.vue&#45;&gt;@/assets/pictures/james.jpg</title>
<path fill="none" stroke="#000000" stroke-width="2" stroke-opacity="0.200000" d="M125.68,-910.76C141.11,-917.28 158.12,-927.46 167.5,-942.66 177.54,-958.95 161.66,-1101.45 175.5,-1114.66 201.14,-1139.14 228.87,-1138.34 255.25,-1114.66 267.56,-1103.61 255.44,-1055.24 263.25,-1040.66 275.9,-1017.04 300.31,-998.25 319.35,-986.28"/>
<polygon fill="#000000" fill-opacity="0.200000" stroke="#000000" stroke-width="2" stroke-opacity="0.200000" points="320.24,-988.2 324.28,-983.29 318.06,-984.6 320.24,-988.2"/>
</g>
<!-- src/components/SuccessCarousel.vue&#45;&gt;@/assets/pictures/priya.jpg -->
<g id="edge7" class="edge">
<title>src/components/SuccessCarousel.vue&#45;&gt;@/assets/pictures/priya.jpg</title>
<path fill="none" stroke="#000000" stroke-width="2" stroke-opacity="0.200000" d="M125.65,-910.78C141.07,-917.31 158.08,-927.49 167.5,-942.66 176.48,-957.13 163.15,-1083.94 175.5,-1095.66 201.21,-1120.06 229.48,-1120 255.25,-1095.66 277.9,-1074.27 242.6,-979 263.25,-955.66 274.68,-942.75 293.18,-938.56 309.79,-937.79"/>
<polygon fill="#000000" fill-opacity="0.200000" stroke="#000000" stroke-width="2" stroke-opacity="0.200000" points="309.77,-939.89 315.74,-937.72 309.72,-935.69 309.77,-939.89"/>
</g>
<!-- src/components/SuccessCarousel.vue&#45;&gt;@/assets/pictures/sarah.jpg -->
<g id="edge8" class="edge">
<title>src/components/SuccessCarousel.vue&#45;&gt;@/assets/pictures/sarah.jpg</title>
<path fill="none" stroke="#000000" stroke-width="2" stroke-opacity="0.200000" d="M125.22,-910.65C140.72,-917.18 157.94,-927.4 167.5,-942.66 175.41,-955.31 164.64,-1066.44 175.5,-1076.66 201.3,-1100.97 229.54,-1101.06 255.25,-1076.66 267.52,-1065.02 252.07,-937.36 263.25,-924.66 274.4,-912 292.36,-907.71 308.69,-906.82"/>
<polygon fill="#000000" fill-opacity="0.200000" stroke="#000000" stroke-width="2" stroke-opacity="0.200000" points="308.57,-908.92 314.52,-906.7 308.48,-904.72 308.57,-908.92"/>
</g>
<!-- src/components/SuccessCarousel.vue&#45;&gt;node_modules/.pnpm -->
<g id="edge9" class="edge">
<title>src/components/SuccessCarousel.vue&#45;&gt;node_modules/.pnpm</title>
<path fill="none" stroke="#000000" stroke-opacity="0.200000" d="M125.89,-910.63C141.36,-917.13 158.36,-927.32 167.5,-942.66 174.92,-955.12 165.17,-1454.49 175.5,-1464.66 214.67,-1503.24 285.64,-1474.46 322.45,-1455.23"/>
<polygon fill="#000000" fill-opacity="0.200000" stroke="#000000" stroke-opacity="0.200000" points="323.27,-1457.17 327.57,-1452.49 321.29,-1453.47 323.27,-1457.17"/>
</g>
<!-- src/components/insights/InsightsChart.vue -->
<g id="node28" class="node">
<title>src/components/insights/InsightsChart.vue</title>
<g id="a_node28"><a xlink:href="src/components/insights/InsightsChart.vue" xlink:title="InsightsChart.vue">
<path fill="#41f083" stroke="black" d="M133.46,-824.29C133.46,-824.29 50.04,-824.29 50.04,-824.29 46.83,-824.29 43.62,-821.08 43.62,-817.87 43.62,-817.87 43.62,-811.45 43.62,-811.45 43.62,-808.25 46.83,-805.04 50.04,-805.04 50.04,-805.04 133.46,-805.04 133.46,-805.04 136.67,-805.04 139.88,-808.25 139.88,-811.45 139.88,-811.45 139.88,-817.87 139.88,-817.87 139.88,-821.08 136.67,-824.29 133.46,-824.29"/>
<text xml:space="preserve" text-anchor="start" x="51.62" y="-811.29" font-family="Helvetica,sans-Serif" font-size="9.00">InsightsChart.vue</text>
</a>
</g>
</g>
<!-- src/components/insights/InsightsChart.vue&#45;&gt;@/utils/format.util -->
<g id="edge10" class="edge">
<title>src/components/insights/InsightsChart.vue&#45;&gt;@/utils/format.util</title>
<path fill="none" stroke="#000000" stroke-width="2" stroke-opacity="0.200000" d="M140.14,-809.57C150.74,-806.13 160.82,-800.57 167.5,-791.66 184.68,-768.78 155.11,-296.74 175.5,-276.66 200.76,-251.8 228.21,-253.75 255.25,-276.66 271.75,-290.64 248.79,-308.58 263.25,-324.66 274.09,-336.71 290.63,-342.68 306.09,-345.55"/>
<polygon fill="#000000" fill-opacity="0.200000" stroke="#000000" stroke-width="2" stroke-opacity="0.200000" points="305.77,-347.63 312.02,-346.45 306.41,-343.47 305.77,-347.63"/>
</g>
<!-- src/components/insights/InsightsChart.vue&#45;&gt;@/utils/insights.util -->
<g id="edge11" class="edge">
<title>src/components/insights/InsightsChart.vue&#45;&gt;@/utils/insights.util</title>
<path fill="none" stroke="#000000" stroke-width="2" stroke-opacity="0.200000" d="M140.12,-809.55C150.72,-806.11 160.8,-800.55 167.5,-791.66 181.25,-773.43 159.29,-396.75 175.5,-380.66 192.9,-363.4 259.13,-367.63 303.73,-372.78"/>
<polygon fill="#000000" fill-opacity="0.200000" stroke="#000000" stroke-width="2" stroke-opacity="0.200000" points="303.41,-374.85 309.62,-373.48 303.91,-370.68 303.41,-374.85"/>
</g>
<!-- src/components/insights/InsightsChart.vue&#45;&gt;node_modules/.pnpm -->
<g id="edge12" class="edge">
<title>src/components/insights/InsightsChart.vue&#45;&gt;node_modules/.pnpm</title>
<path fill="none" stroke="#000000" stroke-opacity="0.200000" d="M140.13,-813.87C150.6,-816.07 160.62,-820.48 167.5,-828.66 178.41,-841.63 163.54,-1426.65 175.5,-1438.66 210.89,-1474.22 274.14,-1464.02 312.85,-1453.06"/>
<polygon fill="#000000" fill-opacity="0.200000" stroke="#000000" stroke-opacity="0.200000" points="313.17,-1455.15 318.33,-1451.44 311.98,-1451.12 313.17,-1455.15"/>
</g>
<!-- src/components/movements/MovementForm.vue -->
<g id="node29" class="node">
<title>src/components/movements/MovementForm.vue</title>
<g id="a_node29"><a xlink:href="src/components/movements/MovementForm.vue" xlink:title="MovementForm.vue">
<path fill="#41f083" stroke="black" d="M138.33,-761.29C138.33,-761.29 45.17,-761.29 45.17,-761.29 41.96,-761.29 38.75,-758.08 38.75,-754.87 38.75,-754.87 38.75,-748.45 38.75,-748.45 38.75,-745.25 41.96,-742.04 45.17,-742.04 45.17,-742.04 138.33,-742.04 138.33,-742.04 141.54,-742.04 144.75,-745.25 144.75,-748.45 144.75,-748.45 144.75,-754.87 144.75,-754.87 144.75,-758.08 141.54,-761.29 138.33,-761.29"/>
<text xml:space="preserve" text-anchor="start" x="46.75" y="-748.29" font-family="Helvetica,sans-Serif" font-size="9.00">MovementForm.vue</text>
</a>
</g>
</g>
<!-- src/components/movements/MovementForm.vue&#45;&gt;@/types -->
<g id="edge13" class="edge">
<title>src/components/movements/MovementForm.vue&#45;&gt;@/types</title>
<path fill="none" stroke="#000000" stroke-width="2" stroke-opacity="0.200000" d="M125.65,-761.78C141.07,-768.31 158.08,-778.49 167.5,-793.66 176.48,-808.13 163.15,-934.94 175.5,-946.66 201.21,-971.06 229.09,-970.58 255.25,-946.66 269.91,-933.26 250.54,-872.92 263.25,-857.66 274.87,-843.71 294.16,-837.83 311.19,-835.5"/>
<polygon fill="#000000" fill-opacity="0.200000" stroke="#000000" stroke-width="2" stroke-opacity="0.200000" points="311.09,-837.62 316.83,-834.9 310.64,-833.44 311.09,-837.62"/>
</g>
<!-- src/components/movements/MovementForm.vue&#45;&gt;node_modules/.pnpm -->
<g id="edge14" class="edge">
<title>src/components/movements/MovementForm.vue&#45;&gt;node_modules/.pnpm</title>
<path fill="none" stroke="#000000" stroke-opacity="0.200000" d="M125.9,-761.63C141.38,-768.12 158.38,-778.3 167.5,-793.66 176.28,-808.45 164.32,-1399.6 175.5,-1412.66 192.8,-1432.88 267.88,-1439.01 312.43,-1440.86"/>
<polygon fill="#000000" fill-opacity="0.200000" stroke="#000000" stroke-opacity="0.200000" points="312.25,-1442.95 318.33,-1441.08 312.41,-1438.76 312.25,-1442.95"/>
</g>
<!-- src/components/movements/MovementList.vue -->
<g id="node30" class="node">
<title>src/components/movements/MovementList.vue</title>
<g id="a_node30"><a xlink:href="src/components/movements/MovementList.vue" xlink:title="MovementList.vue">
<path fill="#41f083" stroke="black" d="M134.58,-699.29C134.58,-699.29 48.92,-699.29 48.92,-699.29 45.71,-699.29 42.5,-696.08 42.5,-692.87 42.5,-692.87 42.5,-686.45 42.5,-686.45 42.5,-683.25 45.71,-680.04 48.92,-680.04 48.92,-680.04 134.58,-680.04 134.58,-680.04 137.79,-680.04 141,-683.25 141,-686.45 141,-686.45 141,-692.87 141,-692.87 141,-696.08 137.79,-699.29 134.58,-699.29"/>
<text xml:space="preserve" text-anchor="start" x="50.5" y="-686.29" font-family="Helvetica,sans-Serif" font-size="9.00">MovementList.vue</text>
</a>
</g>
</g>
<!-- src/components/movements/MovementList.vue&#45;&gt;@/components/movements/MovementListItem.vue -->
<g id="edge15" class="edge">
<title>src/components/movements/MovementList.vue&#45;&gt;@/components/movements/MovementListItem.vue</title>
<path fill="none" stroke="#000000" stroke-width="2" stroke-opacity="0.200000" d="M138.24,-679.57C149.41,-674.98 160.23,-668.31 167.5,-658.66 176.92,-646.16 164.35,-599.65 175.5,-588.66 204.23,-560.34 250.38,-557.26 287.42,-560.62"/>
<polygon fill="#000000" fill-opacity="0.200000" stroke="#000000" stroke-width="2" stroke-opacity="0.200000" points="286.94,-562.68 293.13,-561.22 287.38,-558.5 286.94,-562.68"/>
</g>
<!-- src/components/movements/MovementList.vue&#45;&gt;@/types -->
<g id="edge16" class="edge">
<title>src/components/movements/MovementList.vue&#45;&gt;@/types</title>
<path fill="none" stroke="#000000" stroke-width="2" stroke-opacity="0.200000" d="M141.18,-689.95C151.23,-692.36 160.79,-696.82 167.5,-704.66 181.23,-720.72 160.25,-880.04 175.5,-894.66 201.08,-919.19 227.67,-916.92 255.25,-894.66 268.34,-884.1 251.7,-869.9 263.25,-857.66 275.42,-844.76 294.15,-838.88 310.72,-836.29"/>
<polygon fill="#000000" fill-opacity="0.200000" stroke="#000000" stroke-width="2" stroke-opacity="0.200000" points="310.95,-838.37 316.64,-835.54 310.42,-834.21 310.95,-838.37"/>
</g>
<!-- src/components/movements/MovementListItem.vue -->
<g id="node31" class="node">
<title>src/components/movements/MovementListItem.vue</title>
<g id="a_node31"><a xlink:href="src/components/movements/MovementListItem.vue" xlink:title="MovementListItem.vue">
<path fill="#41f083" stroke="black" d="M145.08,-730.29C145.08,-730.29 38.42,-730.29 38.42,-730.29 35.21,-730.29 32,-727.08 32,-723.87 32,-723.87 32,-717.45 32,-717.45 32,-714.25 35.21,-711.04 38.42,-711.04 38.42,-711.04 145.08,-711.04 145.08,-711.04 148.29,-711.04 151.5,-714.25 151.5,-717.45 151.5,-717.45 151.5,-723.87 151.5,-723.87 151.5,-727.08 148.29,-730.29 145.08,-730.29"/>
<text xml:space="preserve" text-anchor="start" x="40" y="-717.29" font-family="Helvetica,sans-Serif" font-size="9.00">MovementListItem.vue</text>
</a>
</g>
</g>
<!-- src/components/movements/MovementListItem.vue&#45;&gt;@/types -->
<g id="edge17" class="edge">
<title>src/components/movements/MovementListItem.vue&#45;&gt;@/types</title>
<path fill="none" stroke="#000000" stroke-width="2" stroke-opacity="0.200000" d="M151.7,-724.4C157.72,-727 163.2,-730.64 167.5,-735.66 180.88,-751.29 160.64,-906.43 175.5,-920.66 201.1,-945.18 228.66,-944.09 255.25,-920.66 276.43,-902 244.79,-879.01 263.25,-857.66 275.04,-844.02 294.16,-838.14 311.05,-835.72"/>
<polygon fill="#000000" fill-opacity="0.200000" stroke="#000000" stroke-width="2" stroke-opacity="0.200000" points="310.89,-837.86 316.62,-835.1 310.42,-833.68 310.89,-837.86"/>
</g>
<!-- src/components/movements/MovementListItem.vue&#45;&gt;@/utils/format.util -->
<g id="edge18" class="edge">
<title>src/components/movements/MovementListItem.vue&#45;&gt;@/utils/format.util</title>
<path fill="none" stroke="#000000" stroke-width="2" stroke-opacity="0.200000" d="M151.82,-717.03C157.83,-714.41 163.26,-710.75 167.5,-705.66 183.69,-686.25 157.47,-268.38 175.5,-250.66 200.78,-225.82 228.87,-226.99 255.25,-250.66 267.56,-261.71 252.55,-312.05 263.25,-324.66 273.91,-337.23 290.8,-343.23 306.54,-346"/>
<polygon fill="#000000" fill-opacity="0.200000" stroke="#000000" stroke-width="2" stroke-opacity="0.200000" points="305.89,-348.02 312.12,-346.79 306.48,-343.87 305.89,-348.02"/>
</g>
<!-- src/components/movements/MovementListItem.vue&#45;&gt;node_modules/.pnpm -->
<g id="edge19" class="edge">
<title>src/components/movements/MovementListItem.vue&#45;&gt;node_modules/.pnpm</title>
<path fill="none" stroke="#000000" stroke-opacity="0.200000" d="M151.85,-724.28C157.85,-726.89 163.27,-730.57 167.5,-735.66 190.59,-763.5 154.03,-1357.56 175.5,-1386.66 177.61,-1389.53 263.83,-1416.4 312.83,-1431.5"/>
<polygon fill="#000000" fill-opacity="0.200000" stroke="#000000" stroke-opacity="0.200000" points="311.98,-1433.43 318.33,-1433.19 313.21,-1429.42 311.98,-1433.43"/>
</g>
<!-- src/composables/useMovementSearch.ts -->
<g id="node32" class="node">
<title>src/composables/useMovementSearch.ts</title>
<g id="a_node32"><a xlink:href="src/composables/useMovementSearch.ts" xlink:title="useMovementSearch.ts">
<path fill="#ddfeff" stroke="black" d="M145.83,-597.29C145.83,-597.29 37.67,-597.29 37.67,-597.29 34.46,-597.29 31.25,-594.08 31.25,-590.87 31.25,-590.87 31.25,-584.45 31.25,-584.45 31.25,-581.25 34.46,-578.04 37.67,-578.04 37.67,-578.04 145.83,-578.04 145.83,-578.04 149.04,-578.04 152.25,-581.25 152.25,-584.45 152.25,-584.45 152.25,-590.87 152.25,-590.87 152.25,-594.08 149.04,-597.29 145.83,-597.29"/>
<text xml:space="preserve" text-anchor="start" x="39.25" y="-584.29" font-family="Helvetica,sans-Serif" font-size="9.00">useMovementSearch.ts</text>
</a>
</g>
</g>
<!-- src/composables/useMovementSearch.ts&#45;&gt;@/types -->
<g id="edge20" class="edge">
<title>src/composables/useMovementSearch.ts&#45;&gt;@/types</title>
<path fill="none" stroke="#000000" stroke-width="2" stroke-opacity="0.200000" d="M152.47,-591.68C158.2,-594.26 163.39,-597.82 167.5,-602.66 184.75,-623.02 156.32,-824.11 175.5,-842.66 194.08,-860.64 266.54,-850.39 310.8,-842.05"/>
<polygon fill="#000000" fill-opacity="0.200000" stroke="#000000" stroke-width="2" stroke-opacity="0.200000" points="311.05,-844.14 316.54,-840.93 310.25,-840.01 311.05,-844.14"/>
</g>
<!-- src/composables/useMovementSearch.ts&#45;&gt;@/utils/format.util -->
<g id="edge21" class="edge">
<title>src/composables/useMovementSearch.ts&#45;&gt;@/utils/format.util</title>
<path fill="none" stroke="#000000" stroke-width="2" stroke-opacity="0.200000" d="M151.74,-577.66C157.84,-574.42 163.32,-570.18 167.5,-564.66 178.9,-549.6 161.98,-237.87 175.5,-224.66 200.86,-199.9 229.21,-200.62 255.25,-224.66 271.63,-239.79 249.06,-307.47 263.25,-324.66 273.74,-337.38 290.6,-343.4 306.37,-346.14"/>
<polygon fill="#000000" fill-opacity="0.200000" stroke="#000000" stroke-width="2" stroke-opacity="0.200000" points="305.74,-348.17 311.97,-346.92 306.32,-344.01 305.74,-348.17"/>
</g>
<!-- src/composables/useMovementSearch.ts&#45;&gt;node_modules/.pnpm -->
<g id="edge22" class="edge">
<title>src/composables/useMovementSearch.ts&#45;&gt;node_modules/.pnpm</title>
<path fill="none" stroke="#000000" stroke-opacity="0.200000" d="M152.57,-591.59C158.29,-594.19 163.45,-597.77 167.5,-602.66 180.47,-618.32 163.56,-1318.2 175.5,-1334.66 197.47,-1364.95 222.86,-1342.92 255.25,-1361.66 286.06,-1379.49 315.85,-1408.77 332.46,-1426.53"/>
<polygon fill="#000000" fill-opacity="0.200000" stroke="#000000" stroke-opacity="0.200000" points="330.55,-1427.55 336.16,-1430.53 333.63,-1424.7 330.55,-1427.55"/>
</g>
<!-- src/composables/useUser.ts -->
<g id="node33" class="node">
<title>src/composables/useUser.ts</title>
<g id="a_node33"><a xlink:href="src/composables/useUser.ts" xlink:title="useUser.ts">
<path fill="#ddfeff" stroke="black" d="M116.21,-628.29C116.21,-628.29 67.29,-628.29 67.29,-628.29 64.08,-628.29 60.88,-625.08 60.88,-621.87 60.88,-621.87 60.88,-615.45 60.88,-615.45 60.88,-612.25 64.08,-609.04 67.29,-609.04 67.29,-609.04 116.21,-609.04 116.21,-609.04 119.42,-609.04 122.62,-612.25 122.62,-615.45 122.62,-615.45 122.62,-621.87 122.62,-621.87 122.62,-625.08 119.42,-628.29 116.21,-628.29"/>
<text xml:space="preserve" text-anchor="start" x="68.88" y="-615.29" font-family="Helvetica,sans-Serif" font-size="9.00">useUser.ts</text>
</a>
</g>
</g>
<!-- src/composables/useUser.ts&#45;&gt;@/services/api.service -->
<g id="edge23" class="edge">
<title>src/composables/useUser.ts&#45;&gt;@/services/api.service</title>
<path fill="none" stroke="#000000" stroke-width="2" stroke-opacity="0.200000" d="M117.88,-628.66C134.83,-636.8 156.12,-650 167.5,-668.66 183.8,-695.4 155.49,-714.57 175.5,-738.66 191.92,-758.44 260.87,-769.96 305.9,-775.52"/>
<polygon fill="#000000" fill-opacity="0.200000" stroke="#000000" stroke-width="2" stroke-opacity="0.200000" points="305.63,-777.6 311.83,-776.23 306.12,-773.43 305.63,-777.6"/>
</g>
<!-- src/composables/useUser.ts&#45;&gt;@/types -->
<g id="edge24" class="edge">
<title>src/composables/useUser.ts&#45;&gt;@/types</title>
<path fill="none" stroke="#000000" stroke-width="2" stroke-opacity="0.200000" d="M119.04,-628.76C136.07,-636.8 156.97,-649.87 167.5,-668.66 178.37,-688.07 159.46,-853.25 175.5,-868.66 201.06,-893.22 223.66,-884.75 255.25,-868.66 260.64,-865.92 258.28,-861.11 263.25,-857.66 277.41,-847.84 295.66,-842.2 311.41,-838.96"/>
<polygon fill="#000000" fill-opacity="0.200000" stroke="#000000" stroke-width="2" stroke-opacity="0.200000" points="311.37,-841.11 316.88,-837.95 310.6,-836.98 311.37,-841.11"/>
</g>
<!-- src/composables/useUser.ts&#45;&gt;node_modules/.pnpm -->
<g id="edge25" class="edge">
<title>src/composables/useUser.ts&#45;&gt;node_modules/.pnpm</title>
<path fill="none" stroke="#000000" stroke-opacity="0.200000" d="M119.21,-628.66C136.32,-636.67 157.24,-649.72 167.5,-668.66 176.66,-685.57 164.21,-1345.11 175.5,-1360.66 197.48,-1390.94 221.26,-1372.01 255.25,-1387.66 280.31,-1399.21 307.28,-1415.84 325.24,-1427.59"/>
<polygon fill="#000000" fill-opacity="0.200000" stroke="#000000" stroke-opacity="0.200000" points="324,-1429.29 330.17,-1430.85 326.32,-1425.79 324,-1429.29"/>
</g>
<!-- src/config.ts -->
<g id="node34" class="node">
<title>src/config.ts</title>
<g id="a_node34"><a xlink:href="src/config.ts" xlink:title="no&#45;orphans">
<path fill="#ccffcc" stroke="orange" d="M112.83,-1278.29C112.83,-1278.29 70.67,-1278.29 70.67,-1278.29 67.46,-1278.29 64.25,-1275.08 64.25,-1271.87 64.25,-1271.87 64.25,-1265.45 64.25,-1265.45 64.25,-1262.25 67.46,-1259.04 70.67,-1259.04 70.67,-1259.04 112.83,-1259.04 112.83,-1259.04 116.04,-1259.04 119.25,-1262.25 119.25,-1265.45 119.25,-1265.45 119.25,-1271.87 119.25,-1271.87 119.25,-1275.08 116.04,-1278.29 112.83,-1278.29"/>
<text xml:space="preserve" text-anchor="start" x="72.25" y="-1265.29" font-family="Helvetica,sans-Serif" font-size="9.00" fill="orange">config.ts</text>
</a>
</g>
</g>
<!-- src/main.ts -->
<g id="node35" class="node">
<title>src/main.ts</title>
<g id="a_node35"><a xlink:href="src/main.ts" xlink:title="main.ts">
<path fill="#ddfeff" stroke="black" d="M112.33,-1309.29C112.33,-1309.29 71.17,-1309.29 71.17,-1309.29 67.96,-1309.29 64.75,-1306.08 64.75,-1302.87 64.75,-1302.87 64.75,-1296.45 64.75,-1296.45 64.75,-1293.25 67.96,-1290.04 71.17,-1290.04 71.17,-1290.04 112.33,-1290.04 112.33,-1290.04 115.54,-1290.04 118.75,-1293.25 118.75,-1296.45 118.75,-1296.45 118.75,-1302.87 118.75,-1302.87 118.75,-1306.08 115.54,-1309.29 112.33,-1309.29"/>
<text xml:space="preserve" text-anchor="start" x="74.88" y="-1296.29" font-family="Helvetica,sans-Serif" font-size="9.00">main.ts</text>
</a>
</g>
</g>
<!-- src/main.ts&#45;&gt;node_modules/.pnpm -->
<g id="edge29" class="edge">
<title>src/main.ts&#45;&gt;node_modules/.pnpm</title>
<path fill="none" stroke="#000000" stroke-opacity="0.200000" d="M93.96,-1309.68C99.9,-1357.14 127.71,-1558.43 175.5,-1594.66 203.75,-1616.08 224.45,-1612.2 255.25,-1594.66 307.42,-1564.95 332.69,-1492.13 341.83,-1458.81"/>
<polygon fill="#000000" fill-opacity="0.200000" stroke="#000000" stroke-opacity="0.200000" points="343.85,-1459.4 343.34,-1453.06 339.78,-1458.33 343.85,-1459.4"/>
</g>
<!-- src/main.ts&#45;&gt;src/App.vue -->
<g id="edge26" class="edge">
<title>src/main.ts&#45;&gt;src/App.vue</title>
<path fill="none" stroke="#000000" stroke-width="2" stroke-opacity="0.200000" d="M119.09,-1301.72C135.47,-1301.44 155.61,-1298 167.5,-1284.66 181.74,-1268.68 162.99,-1206.04 175.5,-1188.66 175.99,-1187.98 176.51,-1187.34 177.07,-1186.72"/>
<polygon fill="#000000" fill-opacity="0.200000" stroke="#000000" stroke-width="2" stroke-opacity="0.200000" points="178.32,-1188.41 181.7,-1183.02 175.7,-1185.12 178.32,-1188.41"/>
</g>
<!-- src/main.ts&#45;&gt;src/assets/main.css -->
<g id="edge27" class="edge">
<title>src/main.ts&#45;&gt;src/assets/main.css</title>
<path fill="none" stroke="#000000" stroke-width="2" stroke-opacity="0.200000" d="M119.15,-1301.05C135.13,-1300.43 154.81,-1296.86 167.5,-1284.66 178.38,-1274.21 168.73,-1265.15 175.5,-1251.66 180.19,-1242.33 187.31,-1233.24 193.89,-1225.92"/>
<polygon fill="#000000" fill-opacity="0.200000" stroke="#000000" stroke-width="2" stroke-opacity="0.200000" points="195.05,-1227.76 197.63,-1221.95 191.99,-1224.88 195.05,-1227.76"/>
</g>
<!-- src/router/index.ts -->
<g id="node36" class="node">
<title>src/router/index.ts</title>
<g id="a_node36"><a xlink:href="src/router/index.ts" xlink:title="index.ts">
<path fill="#ddfeff" stroke="black" d="M231.96,-1282.29C231.96,-1282.29 190.79,-1282.29 190.79,-1282.29 187.58,-1282.29 184.38,-1279.08 184.38,-1275.87 184.38,-1275.87 184.38,-1269.45 184.38,-1269.45 184.38,-1266.25 187.58,-1263.04 190.79,-1263.04 190.79,-1263.04 231.96,-1263.04 231.96,-1263.04 235.17,-1263.04 238.38,-1266.25 238.38,-1269.45 238.38,-1269.45 238.38,-1275.87 238.38,-1275.87 238.38,-1279.08 235.17,-1282.29 231.96,-1282.29"/>
<text xml:space="preserve" text-anchor="start" x="193.38" y="-1269.29" font-family="Helvetica,sans-Serif" font-size="9.00">index.ts</text>
</a>
</g>
</g>
<!-- src/main.ts&#45;&gt;src/router/index.ts -->
<g id="edge28" class="edge">
<title>src/main.ts&#45;&gt;src/router/index.ts</title>
<path fill="none" stroke="#000000" stroke-width="2" stroke-opacity="0.200000" d="M119.15,-1294.87C133.5,-1292.13 151.54,-1288.49 167.5,-1284.66 170.12,-1284.03 172.82,-1283.35 175.54,-1282.65"/>
<polygon fill="#000000" fill-opacity="0.200000" stroke="#000000" stroke-width="2" stroke-opacity="0.200000" points="175.98,-1284.7 181.23,-1281.12 174.89,-1280.65 175.98,-1284.7"/>
</g>
<!-- src/router/index.ts&#45;&gt;@/views/DashboardView.vue -->
<g id="edge30" class="edge">
<title>src/router/index.ts&#45;&gt;@/views/DashboardView.vue</title>
<path fill="none" stroke="#000000" stroke-width="2" stroke-opacity="0.200000" d="M238.86,-1263.84C245.27,-1260.42 251.38,-1255.81 255.25,-1249.66 265.51,-1233.38 250.58,-1091.14 263.25,-1076.66 269.3,-1069.75 277.37,-1065.33 286.1,-1062.59"/>
<polygon fill="#000000" fill-opacity="0.200000" stroke="#000000" stroke-width="2" stroke-opacity="0.200000" points="286.39,-1064.69 291.7,-1061.19 285.37,-1060.61 286.39,-1064.69"/>
</g>
<!-- src/router/index.ts&#45;&gt;@/views/InsightsView.vue -->
<g id="edge31" class="edge">
<title>src/router/index.ts&#45;&gt;@/views/InsightsView.vue</title>
<path fill="none" stroke="#000000" stroke-width="2" stroke-opacity="0.200000" d="M238.82,-1263.81C245.23,-1260.4 251.35,-1255.79 255.25,-1249.66 272.23,-1223.01 242.32,-1131.34 263.25,-1107.66 270.8,-1099.12 281.45,-1094.39 292.59,-1091.95"/>
<polygon fill="#000000" fill-opacity="0.200000" stroke="#000000" stroke-width="2" stroke-opacity="0.200000" points="292.62,-1094.07 298.19,-1091 291.92,-1089.93 292.62,-1094.07"/>
</g>
<!-- src/router/index.ts&#45;&gt;@/views/MovementsView.vue -->
<g id="edge32" class="edge">
<title>src/router/index.ts&#45;&gt;@/views/MovementsView.vue</title>
<path fill="none" stroke="#000000" stroke-width="2" stroke-opacity="0.200000" d="M235.42,-1262.74C242.22,-1259.2 249.4,-1254.78 255.25,-1249.66 292.03,-1217.44 322.24,-1167.63 336.74,-1141.33"/>
<polygon fill="#000000" fill-opacity="0.200000" stroke="#000000" stroke-width="2" stroke-opacity="0.200000" points="338.43,-1142.61 339.44,-1136.33 334.74,-1140.61 338.43,-1142.61"/>
</g>
<!-- src/router/index.ts&#45;&gt;node_modules/.pnpm -->
<g id="edge33" class="edge">
<title>src/router/index.ts&#45;&gt;node_modules/.pnpm</title>
<path fill="none" stroke="#000000" stroke-opacity="0.200000" d="M223.47,-1282.53C232.46,-1290.74 245.22,-1302.95 255.25,-1314.66 287.45,-1352.27 319.9,-1400.87 335.85,-1425.63"/>
<polygon fill="#000000" fill-opacity="0.200000" stroke="#000000" stroke-opacity="0.200000" points="333.9,-1426.48 338.91,-1430.4 337.44,-1424.21 333.9,-1426.48"/>
</g>
<!-- src/services/api.service.ts -->
<g id="node37" class="node">
<title>src/services/api.service.ts</title>
<g id="a_node37"><a xlink:href="src/services/api.service.ts" xlink:title="api.service.ts">
<path fill="#ddfeff" stroke="black" d="M122.96,-534.29C122.96,-534.29 60.54,-534.29 60.54,-534.29 57.33,-534.29 54.12,-531.08 54.12,-527.87 54.12,-527.87 54.12,-521.45 54.12,-521.45 54.12,-518.25 57.33,-515.04 60.54,-515.04 60.54,-515.04 122.96,-515.04 122.96,-515.04 126.17,-515.04 129.38,-518.25 129.38,-521.45 129.38,-521.45 129.38,-527.87 129.38,-527.87 129.38,-531.08 126.17,-534.29 122.96,-534.29"/>
<text xml:space="preserve" text-anchor="start" x="62.12" y="-521.29" font-family="Helvetica,sans-Serif" font-size="9.00">api.service.ts</text>
</a>
</g>
</g>
<!-- src/services/api.service.ts&#45;&gt;@/config -->
<g id="edge34" class="edge">
<title>src/services/api.service.ts&#45;&gt;@/config</title>
<path fill="none" stroke="#000000" stroke-width="2" stroke-opacity="0.200000" d="M116.75,-534.73C132.35,-542.05 152.51,-553.05 167.5,-566.66 218.02,-612.54 227.83,-630.17 255.25,-692.66 261.84,-707.67 251.43,-717.3 263.25,-728.66 275.68,-740.62 294.26,-744.73 310.67,-745.7"/>
<polygon fill="#000000" fill-opacity="0.200000" stroke="#000000" stroke-width="2" stroke-opacity="0.200000" points="310.42,-747.79 316.48,-745.86 310.54,-743.59 310.42,-747.79"/>
</g>
<!-- src/services/api.service.ts&#45;&gt;@/types -->
<g id="edge35" class="edge">
<title>src/services/api.service.ts&#45;&gt;@/types</title>
<path fill="none" stroke="#000000" stroke-width="2" stroke-opacity="0.200000" d="M125.78,-534.7C141.23,-541.21 158.23,-551.39 167.5,-566.66 181.92,-590.42 156.58,-796.31 175.5,-816.66 193.22,-835.74 266.35,-837.15 310.88,-836.13"/>
<polygon fill="#000000" fill-opacity="0.200000" stroke="#000000" stroke-width="2" stroke-opacity="0.200000" points="310.68,-838.23 316.62,-835.97 310.57,-834.04 310.68,-838.23"/>
</g>
<!-- src/stores/useMovements.ts -->
<g id="node38" class="node">
<title>src/stores/useMovements.ts</title>
<g id="a_node38"><a xlink:href="src/stores/useMovements.ts" xlink:title="useMovements.ts">
<path fill="#ddfeff" stroke="black" d="M132.71,-471.29C132.71,-471.29 50.79,-471.29 50.79,-471.29 47.58,-471.29 44.38,-468.08 44.38,-464.87 44.38,-464.87 44.38,-458.45 44.38,-458.45 44.38,-455.25 47.58,-452.04 50.79,-452.04 50.79,-452.04 132.71,-452.04 132.71,-452.04 135.92,-452.04 139.12,-455.25 139.12,-458.45 139.12,-458.45 139.12,-464.87 139.12,-464.87 139.12,-468.08 135.92,-471.29 132.71,-471.29"/>
<text xml:space="preserve" text-anchor="start" x="52.38" y="-458.29" font-family="Helvetica,sans-Serif" font-size="9.00">useMovements.ts</text>
</a>
</g>
</g>
<!-- src/stores/useMovements.ts&#45;&gt;@/services/api.service -->
<g id="edge36" class="edge">
<title>src/stores/useMovements.ts&#45;&gt;@/services/api.service</title>
<path fill="none" stroke="#000000" stroke-width="2" stroke-opacity="0.200000" d="M120.47,-471.64C136.14,-478.52 155.02,-489.07 167.5,-503.66 240.23,-588.71 219.28,-633.7 255.25,-739.66 259.14,-751.11 254.16,-757.69 263.25,-765.66 274.88,-775.86 291.1,-780.01 306.09,-781.37"/>
<polygon fill="#000000" fill-opacity="0.200000" stroke="#000000" stroke-width="2" stroke-opacity="0.200000" points="305.6,-783.45 311.72,-781.7 305.85,-779.25 305.6,-783.45"/>
</g>
<!-- src/stores/useMovements.ts&#45;&gt;@/types -->
<g id="edge37" class="edge">
<title>src/stores/useMovements.ts&#45;&gt;@/types</title>
<path fill="none" stroke="#000000" stroke-width="2" stroke-opacity="0.200000" d="M125.21,-471.65C140.72,-478.18 157.94,-488.4 167.5,-503.66 183.21,-528.76 168.07,-608 175.5,-636.66 198.13,-723.98 191.52,-764.97 263.25,-819.66 276.77,-829.97 295.11,-834.01 311.09,-835.34"/>
<polygon fill="#000000" fill-opacity="0.200000" stroke="#000000" stroke-width="2" stroke-opacity="0.200000" points="310.54,-837.41 316.65,-835.66 310.78,-833.22 310.54,-837.41"/>
</g>
<!-- src/stores/useMovements.ts&#45;&gt;node_modules/.pnpm -->
<g id="edge38" class="edge">
<title>src/stores/useMovements.ts&#45;&gt;node_modules/.pnpm</title>
<path fill="none" stroke="#000000" stroke-opacity="0.200000" d="M126.31,-471.78C141.69,-478.27 158.48,-488.42 167.5,-503.66 178.95,-523 161.9,-1294.77 175.5,-1312.66 197.82,-1342.03 224.23,-1315.7 255.25,-1335.66 291.96,-1359.29 321.96,-1402.18 336.5,-1425.5"/>
<polygon fill="#000000" fill-opacity="0.200000" stroke="#000000" stroke-opacity="0.200000" points="334.64,-1426.48 339.56,-1430.51 338.22,-1424.3 334.64,-1426.48"/>
</g>
<!-- src/types/index.ts -->
<g id="node39" class="node">
<title>src/types/index.ts</title>
<g id="a_node39"><a xlink:href="src/types/index.ts" xlink:title="no&#45;orphans">
<path fill="#ccffcc" stroke="orange" d="M112.33,-973.29C112.33,-973.29 71.17,-973.29 71.17,-973.29 67.96,-973.29 64.75,-970.08 64.75,-966.87 64.75,-966.87 64.75,-960.45 64.75,-960.45 64.75,-957.25 67.96,-954.04 71.17,-954.04 71.17,-954.04 112.33,-954.04 112.33,-954.04 115.54,-954.04 118.75,-957.25 118.75,-960.45 118.75,-960.45 118.75,-966.87 118.75,-966.87 118.75,-970.08 115.54,-973.29 112.33,-973.29"/>
<text xml:space="preserve" text-anchor="start" x="73.75" y="-960.29" font-family="Helvetica,sans-Serif" font-size="9.00" fill="orange">index.ts</text>
</a>
</g>
</g>
<!-- src/utils/format.util.ts -->
<g id="node40" class="node">
<title>src/utils/format.util.ts</title>
<g id="a_node40"><a xlink:href="src/utils/format.util.ts" xlink:title="no&#45;orphans">
<path fill="#ccffcc" stroke="orange" d="M122.58,-1161.29C122.58,-1161.29 60.92,-1161.29 60.92,-1161.29 57.71,-1161.29 54.5,-1158.08 54.5,-1154.87 54.5,-1154.87 54.5,-1148.45 54.5,-1148.45 54.5,-1145.25 57.71,-1142.04 60.92,-1142.04 60.92,-1142.04 122.58,-1142.04 122.58,-1142.04 125.79,-1142.04 129,-1145.25 129,-1148.45 129,-1148.45 129,-1154.87 129,-1154.87 129,-1158.08 125.79,-1161.29 122.58,-1161.29"/>
<text xml:space="preserve" text-anchor="start" x="62.5" y="-1148.29" font-family="Helvetica,sans-Serif" font-size="9.00" fill="orange">format.util.ts</text>
</a>
</g>
</g>
<!-- src/utils/insights.util.ts -->
<g id="node41" class="node">
<title>src/utils/insights.util.ts</title>
<g id="a_node41"><a xlink:href="src/utils/insights.util.ts" xlink:title="insights.util.ts">
<path fill="#ddfeff" stroke="black" d="M125.21,-1223.29C125.21,-1223.29 58.29,-1223.29 58.29,-1223.29 55.08,-1223.29 51.88,-1220.08 51.88,-1216.87 51.88,-1216.87 51.88,-1210.45 51.88,-1210.45 51.88,-1207.25 55.08,-1204.04 58.29,-1204.04 58.29,-1204.04 125.21,-1204.04 125.21,-1204.04 128.42,-1204.04 131.62,-1207.25 131.62,-1210.45 131.62,-1210.45 131.62,-1216.87 131.62,-1216.87 131.62,-1220.08 128.42,-1223.29 125.21,-1223.29"/>
<text xml:space="preserve" text-anchor="start" x="59.88" y="-1210.29" font-family="Helvetica,sans-Serif" font-size="9.00">insights.util.ts</text>
</a>
</g>
</g>
<!-- src/utils/insights.util.ts&#45;&gt;@/types -->
<g id="edge39" class="edge">
<title>src/utils/insights.util.ts&#45;&gt;@/types</title>
<path fill="none" stroke="#000000" stroke-width="2" stroke-opacity="0.200000" d="M131.76,-1214.99C145,-1213.32 158.66,-1208.87 167.5,-1198.66 188.91,-1173.93 156.16,-1078.05 175.5,-1051.66 197.89,-1021.12 232.94,-1052.27 255.25,-1021.66 276.74,-992.18 240.47,-886.17 263.25,-857.66 274.59,-843.48 293.86,-837.58 310.96,-835.3"/>
<polygon fill="#000000" fill-opacity="0.200000" stroke="#000000" stroke-width="2" stroke-opacity="0.200000" points="310.88,-837.42 316.63,-834.72 310.45,-833.24 310.88,-837.42"/>
</g>
<!-- src/utils/movement&#45;query.util.ts -->
<g id="node42" class="node">
<title>src/utils/movement&#45;query.util.ts</title>
<g id="a_node42"><a xlink:href="src/utils/movement-query.util.ts" xlink:title="movement&#45;query.util.ts">
<path fill="#ddfeff" stroke="black" d="M145.83,-1192.29C145.83,-1192.29 37.67,-1192.29 37.67,-1192.29 34.46,-1192.29 31.25,-1189.08 31.25,-1185.87 31.25,-1185.87 31.25,-1179.45 31.25,-1179.45 31.25,-1176.25 34.46,-1173.04 37.67,-1173.04 37.67,-1173.04 145.83,-1173.04 145.83,-1173.04 149.04,-1173.04 152.25,-1176.25 152.25,-1179.45 152.25,-1179.45 152.25,-1185.87 152.25,-1185.87 152.25,-1189.08 149.04,-1192.29 145.83,-1192.29"/>
<text xml:space="preserve" text-anchor="start" x="39.25" y="-1179.29" font-family="Helvetica,sans-Serif" font-size="9.00">movement&#45;query.util.ts</text>
</a>
</g>
</g>
<!-- src/utils/movement&#45;query.util.ts&#45;&gt;@/config -->
<g id="edge40" class="edge">
<title>src/utils/movement&#45;query.util.ts&#45;&gt;@/config</title>
<path fill="none" stroke="#000000" stroke-width="2" stroke-opacity="0.200000" d="M152.52,-1178.69C158.24,-1176.11 163.42,-1172.53 167.5,-1167.66 180.67,-1151.94 164.22,-815.79 175.5,-798.66 204.53,-754.59 269.97,-744.78 310.81,-743.17"/>
<polygon fill="#000000" fill-opacity="0.200000" stroke="#000000" stroke-width="2" stroke-opacity="0.200000" points="310.66,-745.28 316.6,-743.02 310.55,-741.08 310.66,-745.28"/>
</g>
<!-- src/utils/movement&#45;query.util.ts&#45;&gt;@/services/api.service -->
<g id="edge41" class="edge">
<title>src/utils/movement&#45;query.util.ts&#45;&gt;@/services/api.service</title>
<path fill="none" stroke="#000000" stroke-width="2" stroke-opacity="0.200000" d="M152.73,-1178.4C158.33,-1175.85 163.43,-1172.37 167.5,-1167.66 178.35,-1155.12 172,-1034.87 175.5,-1018.66 198.16,-913.75 180.01,-861.43 263.25,-793.66 275.04,-784.06 290.97,-779.96 305.7,-778.48"/>
<polygon fill="#000000" fill-opacity="0.200000" stroke="#000000" stroke-width="2" stroke-opacity="0.200000" points="305.81,-780.57 311.65,-778.07 305.52,-776.38 305.81,-780.57"/>
</g>
<!-- src/utils/movement&#45;query.util.ts&#45;&gt;node_modules/.pnpm -->
<g id="edge42" class="edge">
<title>src/utils/movement&#45;query.util.ts&#45;&gt;node_modules/.pnpm</title>
<path fill="none" stroke="#000000" stroke-opacity="0.200000" d="M152.52,-1186.63C158.24,-1189.22 163.42,-1192.79 167.5,-1197.66 180.74,-1213.47 160.77,-1554.24 175.5,-1568.66 200.83,-1593.45 223.73,-1584.88 255.25,-1568.66 300.79,-1545.23 328.55,-1487.18 339.96,-1458.4"/>
<polygon fill="none" stroke="#000000" stroke-opacity="0.200000" points="341.78,-1459.52 341.97,-1453.16 337.86,-1458.01 341.78,-1459.52"/>
</g>
<!-- src/views/DashboardView.vue -->
<g id="node43" class="node">
<title>src/views/DashboardView.vue</title>
<g id="a_node43"><a xlink:href="src/views/DashboardView.vue" xlink:title="DashboardView.vue">
<path fill="#41f083" stroke="black" d="M137.21,-1098.29C137.21,-1098.29 46.29,-1098.29 46.29,-1098.29 43.08,-1098.29 39.88,-1095.08 39.88,-1091.87 39.88,-1091.87 39.88,-1085.45 39.88,-1085.45 39.88,-1082.25 43.08,-1079.04 46.29,-1079.04 46.29,-1079.04 137.21,-1079.04 137.21,-1079.04 140.42,-1079.04 143.62,-1082.25 143.62,-1085.45 143.62,-1085.45 143.62,-1091.87 143.62,-1091.87 143.62,-1095.08 140.42,-1098.29 137.21,-1098.29"/>
<text xml:space="preserve" text-anchor="start" x="47.88" y="-1085.29" font-family="Helvetica,sans-Serif" font-size="9.00">DashboardView.vue</text>
</a>
</g>
</g>
<!-- src/views/DashboardView.vue&#45;&gt;@/components/SuccessCarousel.vue -->
<g id="edge45" class="edge">
<title>src/views/DashboardView.vue&#45;&gt;@/components/SuccessCarousel.vue</title>
<path fill="none" stroke="#000000" stroke-width="2" stroke-opacity="0.200000" d="M144.01,-1087.79C153.05,-1085.25 161.48,-1080.88 167.5,-1073.66 183.87,-1054.03 163.63,-636.3 175.5,-613.66 196.17,-574.23 243.42,-554.67 282.95,-545"/>
<polygon fill="#000000" fill-opacity="0.200000" stroke="#000000" stroke-width="2" stroke-opacity="0.200000" points="282.93,-547.16 288.3,-543.76 281.99,-543.07 282.93,-547.16"/>
</g>
<!-- src/views/DashboardView.vue&#45;&gt;@/components/movements/MovementForm.vue -->
<g id="edge43" class="edge">
<title>src/views/DashboardView.vue&#45;&gt;@/components/movements/MovementForm.vue</title>
<path fill="none" stroke="#000000" stroke-width="2" stroke-opacity="0.200000" d="M143.97,-1087.76C153.01,-1085.22 161.46,-1080.86 167.5,-1073.66 179.15,-1059.79 168.91,-764.54 175.5,-747.66 197.01,-692.59 211.62,-676.48 263.25,-647.66 270.07,-643.86 277.66,-641.03 285.41,-638.94"/>
<polygon fill="#000000" fill-opacity="0.200000" stroke="#000000" stroke-width="2" stroke-opacity="0.200000" points="285.53,-641.07 290.89,-637.65 284.57,-636.98 285.53,-641.07"/>
</g>
<!-- src/views/DashboardView.vue&#45;&gt;@/components/movements/MovementList.vue -->
<g id="edge44" class="edge">
<title>src/views/DashboardView.vue&#45;&gt;@/components/movements/MovementList.vue</title>
<path fill="none" stroke="#000000" stroke-width="2" stroke-opacity="0.200000" d="M144,-1087.79C153.04,-1085.24 161.48,-1080.88 167.5,-1073.66 182.6,-1055.58 161.81,-668.84 175.5,-649.66 188.84,-630.98 244.77,-618.09 288.98,-610.59"/>
<polygon fill="#000000" fill-opacity="0.200000" stroke="#000000" stroke-width="2" stroke-opacity="0.200000" points="289.08,-612.71 294.66,-609.66 288.4,-608.56 289.08,-612.71"/>
</g>
<!-- src/views/DashboardView.vue&#45;&gt;@/composables/useMovementSearch -->
<g id="edge46" class="edge">
<title>src/views/DashboardView.vue&#45;&gt;@/composables/useMovementSearch</title>
<path fill="none" stroke="#000000" stroke-width="2" stroke-opacity="0.200000" d="M144.05,-1087.82C153.09,-1085.28 161.51,-1080.9 167.5,-1073.66 181.16,-1057.17 163.3,-320.27 175.5,-302.66 199.14,-268.53 245.16,-256.76 283.44,-253.26"/>
<polygon fill="#000000" fill-opacity="0.200000" stroke="#000000" stroke-width="2" stroke-opacity="0.200000" points="283.14,-255.39 288.96,-252.84 282.81,-251.2 283.14,-255.39"/>
</g>
<!-- src/views/DashboardView.vue&#45;&gt;@/composables/useUser -->
<g id="edge47" class="edge">
<title>src/views/DashboardView.vue&#45;&gt;@/composables/useUser</title>
<path fill="none" stroke="#000000" stroke-width="2" stroke-opacity="0.200000" d="M144.05,-1087.82C153.08,-1085.27 161.5,-1080.9 167.5,-1073.66 180.07,-1058.5 164.84,-381.23 175.5,-364.66 205.43,-318.14 270.28,-298.16 310.81,-289.97"/>
<polygon fill="#000000" fill-opacity="0.200000" stroke="#000000" stroke-width="2" stroke-opacity="0.200000" points="311.09,-292.06 316.59,-288.87 310.31,-287.93 311.09,-292.06"/>
</g>
<!-- src/views/DashboardView.vue&#45;&gt;@/stores/useMovements -->
<g id="edge48" class="edge">
<title>src/views/DashboardView.vue&#45;&gt;@/stores/useMovements</title>
<path fill="none" stroke="#000000" stroke-width="2" stroke-opacity="0.200000" d="M144.05,-1087.83C153.09,-1085.28 161.51,-1080.9 167.5,-1073.66 182,-1056.13 162.45,-273.3 175.5,-254.66 202.64,-215.89 256.33,-200.58 296.24,-194.55"/>
<polygon fill="#000000" fill-opacity="0.200000" stroke="#000000" stroke-width="2" stroke-opacity="0.200000" points="296.39,-196.65 302.05,-193.75 295.82,-192.49 296.39,-196.65"/>
</g>
<!-- src/views/DashboardView.vue&#45;&gt;@/types -->
<g id="edge49" class="edge">
<title>src/views/DashboardView.vue&#45;&gt;@/types</title>
<path fill="none" stroke="#000000" stroke-width="2" stroke-opacity="0.200000" d="M143.87,-1086.75C152.7,-1084.25 161.09,-1080.17 167.5,-1073.66 181.15,-1059.82 163.74,-1046.14 175.5,-1030.66 199.38,-999.25 233.37,-1024.5 255.25,-991.66 271.79,-966.84 244.5,-880.86 263.25,-857.66 274.66,-843.54 293.94,-837.65 311.02,-835.35"/>
<polygon fill="#000000" fill-opacity="0.200000" stroke="#000000" stroke-width="2" stroke-opacity="0.200000" points="310.94,-837.47 316.69,-834.77 310.5,-833.3 310.94,-837.47"/>
</g>
<!-- src/views/DashboardView.vue&#45;&gt;@/utils/format.util -->
<g id="edge50" class="edge">
<title>src/views/DashboardView.vue&#45;&gt;@/utils/format.util</title>
<path fill="none" stroke="#000000" stroke-width="2" stroke-opacity="0.200000" d="M144.04,-1087.81C153.07,-1085.27 161.5,-1080.89 167.5,-1073.66 178.4,-1060.54 169.27,-475.54 175.5,-459.66 196.75,-405.55 212.44,-390.91 263.25,-362.66 276.25,-355.44 292,-351.59 306.26,-349.57"/>
<polygon fill="#000000" fill-opacity="0.200000" stroke="#000000" stroke-width="2" stroke-opacity="0.200000" points="306.2,-351.69 311.91,-348.9 305.7,-347.52 306.2,-351.69"/>
</g>
<!-- src/views/DashboardView.vue&#45;&gt;@/utils/movement&#45;query.util -->
<g id="edge51" class="edge">
<title>src/views/DashboardView.vue&#45;&gt;@/utils/movement&#45;query.util</title>
<path fill="none" stroke="#000000" stroke-width="2" stroke-opacity="0.200000" d="M144.02,-1087.8C153.06,-1085.26 161.49,-1080.89 167.5,-1073.66 186.05,-1051.37 164.51,-578.5 175.5,-551.66 201.43,-488.33 273.48,-444.51 315.15,-423.62"/>
<polygon fill="#000000" fill-opacity="0.200000" stroke="#000000" stroke-width="2" stroke-opacity="0.200000" points="315.88,-425.61 320.34,-421.09 314.03,-421.84 315.88,-425.61"/>
</g>
<!-- src/views/DashboardView.vue&#45;&gt;node_modules/.pnpm -->
<g id="edge52" class="edge">
<title>src/views/DashboardView.vue&#45;&gt;node_modules/.pnpm</title>
<path fill="none" stroke="#000000" stroke-opacity="0.200000" d="M125.86,-1098.65C141.33,-1105.15 158.33,-1115.33 167.5,-1130.66 179.25,-1150.31 159.16,-1526.63 175.5,-1542.66 200.81,-1567.48 222.88,-1557.1 255.25,-1542.66 294.25,-1525.28 323.49,-1481.94 337.26,-1458.07"/>
<polygon fill="#000000" fill-opacity="0.200000" stroke="#000000" stroke-opacity="0.200000" points="339.03,-1459.19 340.14,-1452.93 335.37,-1457.14 339.03,-1459.19"/>
</g>
<!-- src/views/InsightsView.vue -->
<g id="node44" class="node">
<title>src/views/InsightsView.vue</title>
<g id="a_node44"><a xlink:href="src/views/InsightsView.vue" xlink:title="InsightsView.vue">
<path fill="#41f083" stroke="black" d="M130.83,-1067.29C130.83,-1067.29 52.67,-1067.29 52.67,-1067.29 49.46,-1067.29 46.25,-1064.08 46.25,-1060.87 46.25,-1060.87 46.25,-1054.45 46.25,-1054.45 46.25,-1051.25 49.46,-1048.04 52.67,-1048.04 52.67,-1048.04 130.83,-1048.04 130.83,-1048.04 134.04,-1048.04 137.25,-1051.25 137.25,-1054.45 137.25,-1054.45 137.25,-1060.87 137.25,-1060.87 137.25,-1064.08 134.04,-1067.29 130.83,-1067.29"/>
<text xml:space="preserve" text-anchor="start" x="54.25" y="-1054.29" font-family="Helvetica,sans-Serif" font-size="9.00">InsightsView.vue</text>
</a>
</g>
</g>
<!-- src/views/InsightsView.vue&#45;&gt;@/components/SuccessCarousel.vue -->
<g id="edge54" class="edge">
<title>src/views/InsightsView.vue&#45;&gt;@/components/SuccessCarousel.vue</title>
<path fill="none" stroke="#000000" stroke-width="2" stroke-opacity="0.200000" d="M137.45,-1058.33C148.89,-1056.18 160.05,-1051.61 167.5,-1042.66 185.49,-1021.06 155.52,-556.44 175.5,-536.66 190.33,-521.98 240.53,-523.17 282.65,-527.2"/>
<polygon fill="#000000" fill-opacity="0.200000" stroke="#000000" stroke-width="2" stroke-opacity="0.200000" points="282.3,-529.27 288.48,-527.79 282.73,-525.09 282.3,-529.27"/>
</g>
<!-- src/views/InsightsView.vue&#45;&gt;@/components/insights/InsightsChart.vue -->
<g id="edge53" class="edge">
<title>src/views/InsightsView.vue&#45;&gt;@/components/insights/InsightsChart.vue</title>
<path fill="none" stroke="#000000" stroke-width="2" stroke-opacity="0.200000" d="M137.45,-1058.33C148.89,-1056.19 160.05,-1051.62 167.5,-1042.66 186.02,-1020.41 158.12,-544.82 175.5,-521.66 201.41,-487.14 250.92,-478.28 289.93,-477.25"/>
<polygon fill="#000000" fill-opacity="0.200000" stroke="#000000" stroke-width="2" stroke-opacity="0.200000" points="289.59,-479.35 295.57,-477.18 289.54,-475.15 289.59,-479.35"/>
</g>
<!-- src/views/InsightsView.vue&#45;&gt;@/composables/useUser -->
<g id="edge55" class="edge">
<title>src/views/InsightsView.vue&#45;&gt;@/composables/useUser</title>
<path fill="none" stroke="#000000" stroke-width="2" stroke-opacity="0.200000" d="M137.48,-1058.36C148.92,-1056.22 160.08,-1051.64 167.5,-1042.66 182.9,-1024.04 158.33,-189.67 175.5,-172.66 200.68,-147.72 229.18,-148.65 255.25,-172.66 271.16,-187.31 248.72,-253.65 263.25,-269.66 275.11,-282.74 294.23,-286.81 311.11,-287.46"/>
<polygon fill="#000000" fill-opacity="0.200000" stroke="#000000" stroke-width="2" stroke-opacity="0.200000" points="310.63,-289.56 316.65,-287.5 310.66,-285.36 310.63,-289.56"/>
</g>
<!-- src/views/InsightsView.vue&#45;&gt;@/stores/useMovements -->
<g id="edge56" class="edge">
<title>src/views/InsightsView.vue&#45;&gt;@/stores/useMovements</title>
<path fill="none" stroke="#000000" stroke-width="2" stroke-opacity="0.200000" d="M137.49,-1058.36C148.93,-1056.22 160.08,-1051.64 167.5,-1042.66 185.19,-1021.25 155.78,-62.23 175.5,-42.66 200.66,-17.7 224.32,-25.35 255.25,-42.66 305.49,-70.79 331.29,-139.36 341.14,-172.34"/>
<polygon fill="#000000" fill-opacity="0.200000" stroke="#000000" stroke-width="2" stroke-opacity="0.200000" points="339.01,-172.53 342.68,-177.73 343.05,-171.38 339.01,-172.53"/>
</g>
<!-- src/views/InsightsView.vue&#45;&gt;@/utils/format.util -->
<g id="edge57" class="edge">
<title>src/views/InsightsView.vue&#45;&gt;@/utils/format.util</title>
<path fill="none" stroke="#000000" stroke-width="2" stroke-opacity="0.200000" d="M137.47,-1058.35C148.91,-1056.21 160.07,-1051.63 167.5,-1042.66 180.16,-1027.39 161.4,-342.61 175.5,-328.66 193.37,-310.99 261.77,-324.87 306.31,-336.39"/>
<polygon fill="#000000" fill-opacity="0.200000" stroke="#000000" stroke-width="2" stroke-opacity="0.200000" points="305.62,-338.38 311.95,-337.88 306.69,-334.32 305.62,-338.38"/>
</g>
<!-- src/views/InsightsView.vue&#45;&gt;@/utils/insights.util -->
<g id="edge58" class="edge">
<title>src/views/InsightsView.vue&#45;&gt;@/utils/insights.util</title>
<path fill="none" stroke="#000000" stroke-width="2" stroke-opacity="0.200000" d="M137.46,-1058.34C148.9,-1056.19 160.06,-1051.62 167.5,-1042.66 177.85,-1030.21 168.17,-474.1 175.5,-459.66 197.59,-416.15 218.54,-413.21 263.25,-393.66 275.87,-388.15 290.43,-384.66 303.78,-382.45"/>
<polygon fill="#000000" fill-opacity="0.200000" stroke="#000000" stroke-width="2" stroke-opacity="0.200000" points="303.72,-384.58 309.35,-381.63 303.11,-380.43 303.72,-384.58"/>
</g>
<!-- src/views/InsightsView.vue&#45;&gt;node_modules/.pnpm -->
<g id="edge59" class="edge">
<title>src/views/InsightsView.vue&#45;&gt;node_modules/.pnpm</title>
<path fill="none" stroke="#000000" stroke-opacity="0.200000" d="M137.43,-1057.01C148.87,-1059.15 160.04,-1063.72 167.5,-1072.66 183.31,-1091.61 157.9,-1499.38 175.5,-1516.66 221.95,-1562.29 300.81,-1489.75 332.36,-1456.69"/>
<polygon fill="#000000" fill-opacity="0.200000" stroke="#000000" stroke-opacity="0.200000" points="333.73,-1458.3 336.31,-1452.49 330.67,-1455.43 333.73,-1458.3"/>
</g>
<!-- src/views/MovementsView.vue -->
<g id="node45" class="node">
<title>src/views/MovementsView.vue</title>
<g id="a_node45"><a xlink:href="src/views/MovementsView.vue" xlink:title="MovementsView.vue">
<path fill="#41f083" stroke="black" d="M138.71,-1036.29C138.71,-1036.29 44.79,-1036.29 44.79,-1036.29 41.58,-1036.29 38.38,-1033.08 38.38,-1029.87 38.38,-1029.87 38.38,-1023.45 38.38,-1023.45 38.38,-1020.25 41.58,-1017.04 44.79,-1017.04 44.79,-1017.04 138.71,-1017.04 138.71,-1017.04 141.92,-1017.04 145.12,-1020.25 145.12,-1023.45 145.12,-1023.45 145.12,-1029.87 145.12,-1029.87 145.12,-1033.08 141.92,-1036.29 138.71,-1036.29"/>
<text xml:space="preserve" text-anchor="start" x="46.38" y="-1023.29" font-family="Helvetica,sans-Serif" font-size="9.00">MovementsView.vue</text>
</a>
</g>
</g>
<!-- src/views/MovementsView.vue&#45;&gt;@/components/SuccessCarousel.vue -->
<g id="edge61" class="edge">
<title>src/views/MovementsView.vue&#45;&gt;@/components/SuccessCarousel.vue</title>
<path fill="none" stroke="#000000" stroke-width="2" stroke-opacity="0.200000" d="M145.51,-1019.61C154.08,-1016.13 161.95,-1011.05 167.5,-1003.66 183.95,-981.76 155.97,-529.87 175.5,-510.66 200.77,-485.8 223.3,-495.31 255.25,-510.66 260.38,-513.13 258.36,-517.75 263.25,-520.66 269.38,-524.32 276.18,-527.12 283.18,-529.27"/>
<polygon fill="#000000" fill-opacity="0.200000" stroke="#000000" stroke-width="2" stroke-opacity="0.200000" points="282.2,-531.18 288.54,-530.71 283.29,-527.13 282.2,-531.18"/>
</g>
<!-- src/views/MovementsView.vue&#45;&gt;@/components/movements/MovementList.vue -->
<g id="edge60" class="edge">
<title>src/views/MovementsView.vue&#45;&gt;@/components/movements/MovementList.vue</title>
<path fill="none" stroke="#000000" stroke-width="2" stroke-opacity="0.200000" d="M145.48,-1019.59C154.06,-1016.11 161.94,-1011.03 167.5,-1003.66 180.52,-986.41 160.6,-630.32 175.5,-614.66 190.62,-598.77 245.12,-597.23 288.49,-598.77"/>
<polygon fill="#000000" fill-opacity="0.200000" stroke="#000000" stroke-width="2" stroke-opacity="0.200000" points="288.17,-600.86 294.25,-599 288.34,-596.66 288.17,-600.86"/>
</g>
<!-- src/views/MovementsView.vue&#45;&gt;@/composables/useMovementSearch -->
<g id="edge62" class="edge">
<title>src/views/MovementsView.vue&#45;&gt;@/composables/useMovementSearch</title>
<path fill="none" stroke="#000000" stroke-width="2" stroke-opacity="0.200000" d="M145.55,-1019.65C154.12,-1016.16 161.98,-1011.07 167.5,-1003.66 182.59,-983.42 157.57,-112.44 175.5,-94.66 200.67,-69.71 229.46,-70.35 255.25,-94.66 277.28,-115.43 244.23,-207.11 263.25,-230.66 268.66,-237.36 275.84,-242.21 283.72,-245.7"/>
<polygon fill="#000000" fill-opacity="0.200000" stroke="#000000" stroke-width="2" stroke-opacity="0.200000" points="282.6,-247.52 288.95,-247.68 284.09,-243.6 282.6,-247.52"/>
</g>
<!-- src/views/MovementsView.vue&#45;&gt;@/composables/useUser -->
<g id="edge63" class="edge">
<title>src/views/MovementsView.vue&#45;&gt;@/composables/useUser</title>
<path fill="none" stroke="#000000" stroke-width="2" stroke-opacity="0.200000" d="M145.55,-1019.64C154.12,-1016.16 161.98,-1011.06 167.5,-1003.66 181.73,-984.58 158.59,-163.42 175.5,-146.66 200.68,-121.72 229.39,-122.43 255.25,-146.66 275.24,-165.39 245.02,-249.22 263.25,-269.66 275,-282.84 294.11,-286.92 311.01,-287.55"/>
<polygon fill="#000000" fill-opacity="0.200000" stroke="#000000" stroke-width="2" stroke-opacity="0.200000" points="310.56,-289.65 316.57,-287.58 310.58,-285.45 310.56,-289.65"/>
</g>
<!-- src/views/MovementsView.vue&#45;&gt;@/stores/useMovements -->
<g id="edge64" class="edge">
<title>src/views/MovementsView.vue&#45;&gt;@/stores/useMovements</title>
<path fill="none" stroke="#000000" stroke-width="2" stroke-opacity="0.200000" d="M145.56,-1019.65C154.13,-1016.16 161.98,-1011.07 167.5,-1003.66 183.88,-981.67 156.03,-35.97 175.5,-16.66 200.66,8.3 224.94,1.71 255.25,-16.66 312.21,-51.2 335.1,-134.48 342.74,-171.9"/>
<polygon fill="#000000" fill-opacity="0.200000" stroke="#000000" stroke-width="2" stroke-opacity="0.200000" points="340.67,-172.3 343.86,-177.8 344.8,-171.51 340.67,-172.3"/>
</g>
<!-- src/views/MovementsView.vue&#45;&gt;@/utils/format.util -->
<g id="edge65" class="edge">
<title>src/views/MovementsView.vue&#45;&gt;@/utils/format.util</title>
<path fill="none" stroke="#000000" stroke-width="2" stroke-opacity="0.200000" d="M145.54,-1019.63C154.11,-1016.15 161.97,-1011.06 167.5,-1003.66 179.16,-988.06 161.65,-316.35 175.5,-302.66 200.71,-277.74 226.22,-282.33 255.25,-302.66 263.77,-308.63 255.61,-317.6 263.25,-324.66 274.96,-335.5 291.34,-341.29 306.44,-344.37"/>
<polygon fill="#000000" fill-opacity="0.200000" stroke="#000000" stroke-width="2" stroke-opacity="0.200000" points="305.88,-346.4 312.15,-345.36 306.6,-342.27 305.88,-346.4"/>
</g>
<!-- src/views/MovementsView.vue&#45;&gt;@/utils/movement&#45;query.util -->
<g id="edge66" class="edge">
<title>src/views/MovementsView.vue&#45;&gt;@/utils/movement&#45;query.util</title>
<path fill="none" stroke="#000000" stroke-width="2" stroke-opacity="0.200000" d="M145.52,-1019.62C154.09,-1016.14 161.96,-1011.05 167.5,-1003.66 186.53,-978.28 154.45,-456.4 175.5,-432.66 201.64,-403.18 246.12,-397.97 283.09,-399.86"/>
<polygon fill="#000000" fill-opacity="0.200000" stroke="#000000" stroke-width="2" stroke-opacity="0.200000" points="282.68,-401.93 288.8,-400.24 282.96,-397.74 282.68,-401.93"/>
</g>
<!-- src/views/MovementsView.vue&#45;&gt;node_modules/.pnpm -->
<g id="edge67" class="edge">
<title>src/views/MovementsView.vue&#45;&gt;node_modules/.pnpm</title>
<path fill="none" stroke="#000000" stroke-opacity="0.200000" d="M145.53,-1027.98C153.99,-1030.58 161.82,-1034.85 167.5,-1041.66 183.48,-1060.82 157.7,-1473.18 175.5,-1490.66 218.29,-1532.69 294.64,-1482.43 328.73,-1455.96"/>
<polygon fill="#000000" fill-opacity="0.200000" stroke="#000000" stroke-opacity="0.200000" points="329.62,-1457.94 333.02,-1452.57 327.01,-1454.64 329.62,-1457.94"/>
</g>
</g>
</svg>
